<svg id="Calque_1" data-name="Calque 1" xmlns="http://www.w3.org/2000/svg" viewBox="0 0 533 628.31"><defs><style>.cls-1{fill:#fff;}</style></defs><path d="M876.31,683.05l7.22-3.26-8.74,12.15,6.84,1.81c-7.28,5.76-14.88,7.06-22.24,9.3,11.31,1.59,21.25-3.85,32-6.09l-15.32,10.69c4.22,2.71,10.63-3.23,12.11,4.78-9.55,6.08-19.57,10.8-31.37,11,4.89,2.5,9.81,1.21,14.58.11a147.42,147.42,0,0,0,15.31-4.47c4.84-1.69,9.51-3.85,14.67-5.07l-28.29,17.59c7.35,1.87,14.65-3.47,23-.07-5.64,2-9.78,3.27-13.75,4.93-1.21.51-2,2.08-2.92,3.17a15.46,15.46,0,0,0,3.48,1.52c2.4.41,4.86.51,7.3.73l.23,1.6-10.67,2.49,5.18,7.87-5.7-2.65c-.06,1.19-.13,2.47-.14,2.71,2.59,1.5,5.61,2.25,6.23,3.91s-1.13,4.24-1.86,6.45c.71,5.36,1.48,11.18,2.26,17l-1,.14a29.69,29.69,0,0,1,2.85,3.42c1.71,2.77.31,5.55-2.92,5.29-4.28-.34-8.52-1.31-12.77-2.06-1.41-.25-2.79-.65-4.18-1l-.53,1.11c2,1.15,3.88,2.79,6,3.36,7.52,2,15.16,3.59,22.72,5.46a25.36,25.36,0,0,1,4.36,2c-1,2-2,4-3.18,6-.61,1-2.17,1.74-2.27,2.7-.58,5.27-4.34,6.7-8.59,7.27s-8.61.63-12.92,1a10.63,10.63,0,0,0-2.44,1.12c5.14,2.87,9.73,5.3,14.18,8a33.12,33.12,0,0,1,6.14,4.64c3.44,3.37,6.71,6.92,9.89,10.53a20.29,20.29,0,0,1,2.24,4.08h-47a33.86,33.86,0,0,1-.22-4.48c1.46-18.24-.62-36.21-4.51-54-2.77-12.66-6-25.2-9.27-37.76-.71-2.78-2.11-5.38-3.28-8.27l-10.29,12.11.79,1.12c-1.15.48-2.57.62-3.08,1.37-2.22,3.32-3.73,7.21-6.33,10.16-4.08,4.63-4.37,9.48-2.54,14.87a66.14,66.14,0,0,0,2.66,7c4.1,8.74,8.7,17.26,12.38,26.17,4.3,10.39,7.83,21.11,11.69,31.69h-37c-.52-2.61-.87-5.27-1.61-7.81-3.85-13.24-8.33-26.32-11.61-39.69-5.3-21.66-10.18-43.4-18.57-64.15-.54-1.36-1.16-3.07-.79-4.33,1.4-4.77,2.25-10.09,5-14,5.79-8.14,1-14.74-1.47-21.94-1.66-4.85-3.41-9.21-10.77-8.73,1.45,3.2,2.73,6.06,4,8.92l-.87.12,3,13.88c-5.66.64-7.38-.19-8.79-4.7q-4.24-13.56-8.11-27.25c-.83-3-.8-6.19-1.53-9.2-1.28-5.21-2.85-10.34-4.32-15.53,2.13-7.63,4.42-15.2,6.4-22.85,1-3.86,1.46-7.86,2.17-11.8l-2-.29L756,623.6c-3.45.22-6.92-.26-9.82.8-3.55,1.29-4.77,4.91-4.52,8.63.19,2.91,4.17,4.86,7.94,4.14l1.32,12.74c-.84,1.47-2.4,3-2.39,4.41.09,9,.24,17.93,1,26.85.69,8.74,1.08,17.7,3.34,26.1,5.39,20,11.23,39.92,18,59.5,5.5,16,12.51,31.44,18.92,47.1,4.14,10.13,8.38,20.22,12.58,30.33h-51c-2.22-1.5-4.27-3.45-6.7-4.37-4-1.52-5.72.1-4.3,4.37h-19c-9.76-6.42-11.58-5.28-17,0h-69c1.37-10.88,2.9-21.75,4-32.65a87.75,87.75,0,0,0,.16-14.41c-.79-12.36-1.87-24.71-2.83-37.06,10.63,10.93,20.21,22.52,30.21,33.73s20.23,21.83,33.76,28.52c5.87,2.9,12.7,3.91,18.47,7,16.64,8.84,34.53,9,52.56,8.63,1,0,2.5-.86,2.66-1.56a3.67,3.67,0,0,0-1.43-2.83c-1-.77-2.41-1-3.63-1.48-6.34-2.67-12.84-5-19-8.17-3.85-2-4.71-5.79-1.4-9.08a23.45,23.45,0,0,1,7.75-4.89c6.08-2.41,6.71-3.64,3.58-9-.39-.67-.25-1.63-.55-2.37-1.74-4.38.05-9.94-4.77-13.34-4.5-3.16-4.29-7.79-2.39-12.14s4.64-8.62,7.22-13.31l5.53,8.53.47-.31-10.39-26.38-.5.2c1,4.25,2.08,8.51,3,12.46-2,0-3.64.09-5.26,0-4.76-.31-10,.47-14.16-1.34-5.77-2.52-10.68-7-16.67-11.12,8.14-5.29,18.31-4.49,27.39-9.19-1.61,0-2.34-.19-2.92,0-5,1.83-6.42-.71-6.81-5.14a85.06,85.06,0,0,0-1.69-8.73c-.53,3.95.21,7.69.45,11.46.07,1.29-.93,3.65-1.79,3.83-5.8,1.22-11.69,2-18,3-.57-3.21-1.15-5.78-1.47-8.38-1.7-13.76-4.26-16.36-17.85-18-.28,0-.52-.35-1.24-.85-.76-8.18-1.56-16.71-2.41-25.74,16.66-1,26.94,8.69,37.64,18.66a7.41,7.41,0,0,0-.66-1.68c-8.42-10.3-18.72-17.46-32.34-18.51-3.68-.28-5.27-1.12-5.37-5.14A140.93,140.93,0,0,0,693.06,660c-.69-4.56,1.29-6.41,5.42-5.78a84.44,84.44,0,0,1,15.5,3.37c7.55,2.68,14.82,6.17,21.81,9.15-1.31-11.46-2.64-23.1-4.06-35.48-4.53,3.3-6.3.77-6.87-2.47-1.85-10.35-6.42-20.38-3.8-31.33A20.81,20.81,0,0,0,721,590c-.24-1.75-1.19-3.4-1.83-5.1l-1.3.16c-1.38,5-2.58,10.13-4.23,15.07-.48,1.45-2.42,3.62-3.34,3.46-1.64-.28-4.14-2-4.31-3.29a102.14,102.14,0,0,1-1-17.81c.44-8.51,5.15-16.49,2.46-25.55-1.15-3.88-.19-8.4-.19-12.63-1-.08-1.52,1.16-2.24,2.23-6.07,9-14.77,15-24.24,19.5-16.15,7.73-32.8,11.13-49.83,2.17-.29-.15-.61-.44-.89-.41-1.24.11-2.47.32-3.71.49.2,1.06.11,2.31.65,3.16,2.15,3.4,4.5,6.68,6.93,10.22l-6-1.23c.93,3.76,1.38,6.78,2.42,9.59,2.8,7.57.85,13-6,16.46a4.6,4.6,0,0,0-1.9,2.91c-.65,3-1,6.08-1.6,10.26l-3.59-4.51c-2.53,2.9-5.19,5.25-7,8.14-6.78,11-16.22,19.37-26.32,27.06-3.15,2.4-4.1,4.72-2.87,8.47,3.21,9.8,6.73,19.54,9.16,29.55,7.17,29.58,14.38,59.18,20.58,89,4.61,22.12,7.67,44.56,11.41,66.86h-9l-7.48-18.44,2-3.26c-3.18-3.21-6.87-5.38-8.07-8.5-1.68-4.38-1.74-9.45-2-14.25-.24-3.77-1.38-5.49-5.52-4.92-1.13.16-2.54-1.75-3.82-2.71,3.26-4-.78-6.45-2.33-9Q577.91,769.55,569,756.5c-3-4.35-7.37-7.82-9.83-12.38-5.83-10.8-14.82-18.14-24.69-24.71-3.05-2-5.15-1.06-7.51,1.9-2.71,3.41-.92,5.09,1.35,6.92,1.91,1.54,4.15,2.66,6.09,4.17a47.31,47.31,0,0,1,4.26,4.42c-5-1.37-8.56-2.85-12.2-3.16-2.55-.22-5.24,1.15-7.86,1.81,1.18,1.61,2.37,3.2,3.54,4.82.19.26.22.67.45.88,3.78,3.67,7.33,7.65,11.46,10.88,3.94,3.09,6.24,9.83,3.93,15.79-.4-1.65-.64-2.67-.93-3.87a16.44,16.44,0,0,1-1.59,2c-7.41-4.25-14.76-8.61-22.66-13.28.12,1.53.21,2.6.3,3.66-3.47-8.25-6.87-16.53-10.48-24.72-.43-1-2.08-1.36-3.06-2.14s-1.88-1.74-2.81-2.62l1.08-1.2,2.62,2.11,1.65-.5c-7-20.92-10.16-42.45-12.45-63.95-3.64-4.89-7.37-9.92-11.38-15.33,4.44-.7,5.52-3.77,4.4-7.09-3.17-9.4-4.33-19.09-5.25-28.88-.1-1.16-2-2.16-3.24-3.48,2.93-2.08,3-5.44,2.56-9.86-2-20.58-5.28-41.34,2.78-61.5a21.89,21.89,0,0,1,1-2.21c4.54-8.45.39-14.91-9.66-15-.22,0-.44-.42-1.68-1.66,2.79-.16,4.67-.14,6.52-.41s3.79-.84,5.75-1.3c-3,3.81-1.05,5.76,3.17,7.71-.88-11.41,9.56-10.85,15.2-15.41,2.29-1.84,4.71-3.5,7-5.21l-4.91-4.94.82-1.07c10.93,6.25,19.34-2.67,28.71-5,4.53-1.15,8.59-5.38,12.14-8.93,7.59-7.59,17.36-11,26.83-15,4.26-1.81,8.75-3.1,13.19-4.65C581.29,450,579,436,576.84,423c-3.86-2.53-7.67-4.37-10.61-7.13s-2.59-6.47-.49-10.08c3.93-6.77,4.28-14.18.53-20.78-3.06-5.4-1.83-11.05-3.09-16.49-.69-2.95,0-6.2-.17-9.31,0-.68-.83-1.41-1.43-1.95-1.68-1.5-3.43-2.91-5.16-4.36l.82-1.45L569.48,359c.91-10.36,1.48-19.56,2.61-28.68.68-5.41,2.45-10.74-1.76-15.69,3.27.4,5.32,0,4.86-3.91a9.8,9.8,0,0,1,1.26-5.16c2.73-5.34,5.78-10.51,8.51-15.84,1.34-2.62,2.8-5.37,3.2-8.21.36-2.52-.68-5.25-1.2-8.56,1.24.47,2.76,1,4.18,1.62a22.33,22.33,0,0,1,2.78,1.8,22.75,22.75,0,0,0,.2-3.85c-.08-.75-.74-1.43-1.45-2.7,6.25-.37,3.58-4.72,3.79-8.18,2.35,1.17,4.42,2.3,6.58,3.21.88.36,2.71.55,2.82.27a6,6,0,0,0,.48-3.59c-.68-2.51-1.75-4.92-2.83-7.84,3.66-.37,6.15-.59,8.63-.93.17,0,.23-.87.36-1.4,2.25,3,6.56,3.71,8.8,1.4,3-3.08,4.75-7.61,10.54-6.77,1.18.17,2.73-2.95,4.27-4.37,2.86-2.64,5.84-5.14,9.23-8.1,2.23,1.38,4.6,0,7.34-4h-10v-5.35c2.8,1,5.21,1.92,7.6,2.83.61.23,1.31,1,1.73.81,5.09-1.77,10-4.79,15.83.2v-2l-5.34-8.92c5.85-.83,12,2.33,16.39-1.19l10,1.7.21,1.22-7.91,1.45c.29,5.94,2,8.6,6.05,8.85,5.71.35,9-1.28,9.68-4.77l10.17,4.73-.6,1.33,9.26,2.06c-6.44,3.48-7.62,3.17-12.27-2.88a55.93,55.93,0,0,0-6.17.76,11.1,11.1,0,0,0-3,1.74c.9,1,1.78,2,2.7,2.93.78.81,1.63,1.55,2.38,2.38s1.44,2,2.33,2.81c2.11,1.92,5.15,3.32,6.32,5.67,2.75,5.53,4.55,11.52,6.88,17.28a10.68,10.68,0,0,0,3.28,4.18c1.82-5.73-.48-10.44-3.19-15l3.18-2.34c1.16,3.94,2.47,8.4,3.76,12.81,5.12-.94,7.76,2.33,9.44,10.65a32.19,32.19,0,0,1-2.61-4.63c-1.07-2.88-2.86-4.11-6.64-3.56.89,4.5,1.72,8.71,2.52,12.71,4.12.33,7.57.58,6.59-4.68,1.84,5.54,1.66,5.9-4.19,7.49a21.7,21.7,0,0,0,1.33,3.63c4.61,7.9,10.12,15.41,13.67,23.75,2.43,5.7,2.28,12.54,3.07,18.89,1,8.14,2.47,16.3,2.54,24.46,0,7.2-1.57,14.41-2.38,21.62-.2,1.78-.09,3.6-.13,5.4l5.17-1.56c1.25,4.33-1.49,13.41-6.09,18.54-.21-2.41-.38-4.41-.55-6.41l-1.53-.33c4,8.94-1.31,15.26-4.35,22.43-1.8,4.25-1.65,9.49-1.65,14.28,0,1.87,2,3.75,3.09,5.68l-4.66,3.25,4.4,3.29-5.21.57c-.72,3.87-1.68,7.76-2.12,11.71-.56,5,4.81,11.07,9.8,11.61,1.24.13,2.91.11,3.62.87,6.54,7,14.66,12.78,17.42,22.63.71,2.54.8,5.25,1.51,7.78.31,1.1,1.48,2,2.43,3.15l-5,2.54c.49,2.58,1,5.29,1.52,8l-1.36.56c-2.52-6.06-4.71-12.29-7.66-18.14a138.36,138.36,0,0,0-10.19-17c-3.87-5.54-8.4-10.61-12.9-16.19-3.06,8.3-7.28,16.1-8.6,24.36-1.2,7.54-1.81,15.59,3.21,23.23,3.21,4.88,3.41,11.75,5,17.72,1.12,4.32,1.85,8.77,3.4,12.92,3.81,10.18,2.89,21.15,5.51,31.39,1.86,7.26,1.48,15.81,8.17,21.31a12.88,12.88,0,0,0,5.51,2.45c-5.71-7.93-13.55-14.88-7.71-25.83,8.42.84,17.1,1.78,25.8,2.53,3,.25,6-.37,8.94.09,3.36.53,6.93.59,6.51,6.36-.26,3.54,3,7.22,4.11,11,2.8,9.73,11.54,13.68,18.43,19.41a33,33,0,0,1,11.09,17.11,8.51,8.51,0,0,0,2.58,4.38c-.53-13.24-1.17-26.48-1.56-39.72-.4-13.68,4.65-26.27,7.59-39.28l1.43,0a44.24,44.24,0,0,1,.44,5.95c-.22,4.15-.76,8.29-1,12.44-.09,1.3-.26,3.39.42,3.81,4.67,2.89,2.26,6.71,1.56,10.2-1.94,9.61-4.07,19.18-6.08,28.78a4.84,4.84,0,0,0,.41,3.32l9.2-24.2,4.63,2.86-3.25-7.3.78-.49,4.15,2.78,1.42-.89c-.91-1.84-1.81-3.67-3-6l5,1.73c6.87-14.88,13.68-29.64,20.5-44.4l1.42.55q-10.85,29.4-21.68,58.82l.81.47,5.42-6.89,1.63.15a61,61,0,0,1-.85,21l5.76-1.43c-.29,4.69-.57,9.23-.85,13.94,4.93-1.28,4.93-1.28,5.48,10l7.87-3.26,1.19,1.27L861,635.89l1.86,2.35L881.15,629c-5.17,4.63-10.07,9-16.11,14.46l9.76-2.19-5,6.47c7.68,5,.42,8.79-2.12,13.48,5.84.46,10.24-6.51,15.4-1.21a18.31,18.31,0,0,1-9,12.91l6.64.66.63,1.57c-2,1.29-4,2.74-6.07,3.83s-4.51,1.89-6.78,2.81l.12,1.29h7.91l-17.19,8C865.44,689.36,872.33,689.38,876.31,683.05Zm-205.6-291c-.3.4-1.38,1.21-1.28,1.82,1,6-.61,12.78,5.39,17.32,1.2.91,1.93,2.77,2.36,4.33,1.58,5.74,5.88,8.49,11.14,9.43s10.42.8,15.41,1.12c-1.88,2.89,5.76,10.19-4.52,9.82,4,3.25,7.43,6.36,11.21,8.89,3.49,2.34,6.66,5.85,11.65,5.21.5-2.62-.6-6.29,2.91-5,1.94-5.63,3.84-10.82,5.53-16.07a123.69,123.69,0,0,0,3.35-12.05,62.43,62.43,0,0,0,.91-8.88c.58-8.54,1.11-17.07,1.67-25.94l-3.82,1.11a8.81,8.81,0,0,1,.57-1.73c5.14-7.77,5.44-15.25-.59-22.89a16.33,16.33,0,0,1-3.44-8.61c-.29-5.14,1.24-10.42.77-15.52-1-11.37-2.79-23-12.89-30.21-6.88-4.89-14.85-8.33-22.55-12-3.89-1.82-9.71-1.37-12.11-4.15-4-4.59-7.28-.37-10.72-1-.19,0-.72,1.71-.95,2.28-3.08.56-6.3.58-9,1.76-4.6,2-8.55,5.86-14.23,4a2.45,2.45,0,0,0-2,.14c-3.81,3.07-7.6,1.39-12.07.08.59,4,.83,8.4,3.09,11.12,3.7,4.45,4.67,9.7,6.38,14.74.7,2.08.11,4.59.11,6.91l1.45.55-7.9,2.18c-.15,7.27,5.39,11.51,9,16.74.55.79,2.28,1.63,2.94,1.32,6.35-3,10.15,3.66,15.62,3.89l1.53-8,.81-.28c.94,2.78,1.89,5.57,3,8.75,2.83-.46,6.63-2.32,9-1.19,4.6,2.13,8.76,3.67,14.06,3.63a49.78,49.78,0,0,1,18.52,3.09c5.46,2.19,12.45,3.12,15.11,10l3.71-.46c-1.32,7.8-2.58,15.17-3.88,22.86l3.43-.85c-2.41,6.08-4.87,12.31-7.33,18.54l-.54-.25,1.48-6-1.09-.76-4.07,5.83c.23-5.25,6.49-7.5,5.52-12.49l-7.73.4c-3.37,2-6,3.5-8.63,5-.66.38-1.68.51-2,1.06-3.33,5.74-7.45,7.58-13.68,6.19-3.36-.75-6.79-1.18-10-1.73Zm135,259-1.91,1.55c-2.88-2-6.25-3.61-8.53-6.17-5.29-5.95-10-12.44-15.08-18.55-1.85-2.2-3.07-6.13-8.07-4.28,6.36,13.26,1.33,26.58,1.5,40.21l-13.49,1.7c6.5.39,12.93-.12,19.37-.15a6,6,0,0,1,4.38,2.54c1.57,2.56,2.41,5.56,3.56,8.38l1.59-.47c.42-2.07,1.46-4.23,1.16-6.18-.94-5.93,2.37-7.24,7.15-7.47,2.6-.13,5.19-.41,7.81-.63,0,2.08,0,3.86,0,5.64s.15,3.61.28,5.4c.1,1.48.27,3,.42,4.44l1.34-.1c.54-7.85,9.85-13.67,5-22.63-1.28,1.21-2.35,3.08-3.81,3.45-9.31,2.38-18.71,4.42-29,6.78,0-8.33-.07-15.1.07-21.86,0-.93.94-2.43,1.67-2.58s2.18.6,2.92,1.34A30.61,30.61,0,0,1,789,647.1c4.38,7.49,11.82,8.26,20.45,9.12.17-14-7.19-25.53-11.64-37.89l-1.53.41Q801,634.9,805.76,651.05ZM680.69,434.65c-1-3.89-1.49-7.33-2.87-10.35-4.74-10.38-9.82-20.61-15.07-31.53a9.11,9.11,0,0,0-3.21-.49c-3.21.39-6.49,1.21-6.72,5.28-.4,7-.57,14-.83,21-.15,3.76,3.42,9.13,7.22,10.24C665.81,430.77,672.5,432.45,680.69,434.65ZM656.58,474l-.46,1.68a94.45,94.45,0,0,0,8.25,5.62c3,1.66,7,2.12,9.36,4.35,2.63,2.45,6,2.42,6.7.63,1.09-2.78,6.69-3.84,3.38-8.6-3.11-4.46-6-8-12.21-5.48-1.42.58-3.31-.12-4.94.1C663.28,472.72,659.93,473.39,656.58,474Zm-2.84-82.65,11-.56,1.79,4.4,1.6-.37c-.8-3.9-1.6-7.8-2.38-11.62l2.25-.48.21-1.21-8.91-3.87-.46,1,2.08,2C655,381.12,654.11,379.55,653.74,391.32ZM769,611.28l1.53,0q-2.4-22.49-4.78-45l-1.8.19C762.11,581.76,765.87,596.49,769,611.28ZM627.23,415.06c.47-4.18-2.1-2.63-4.11-2.79-3.46-.26-6.88-1.59-10.3-1.55-3.67,0-7.33,1.14-10.69,1.73C607.25,417.52,615.74,418.58,627.23,415.06Z" transform="translate(-370.29 -215.88)"/><path class="cls-1" d="M622.29,844.2c-3.74-22.3-6.8-44.74-11.41-66.86-6.2-29.79-13.41-59.39-20.58-89-2.43-10-5.95-19.75-9.16-29.55-1.23-3.75-.28-6.07,2.87-8.47,10.1-7.69,19.54-16.06,26.32-27.06,1.78-2.89,4.44-5.24,7-8.14l3.59,4.51c.62-4.18,1-7.25,1.6-10.26a4.6,4.6,0,0,1,1.9-2.91c6.85-3.44,8.8-8.89,6-16.46-1-2.81-1.49-5.83-2.42-9.59l6,1.23c-2.43-3.54-4.78-6.82-6.93-10.22-.54-.85-.45-2.1-.65-3.16,1.24-.17,2.47-.38,3.71-.49.28,0,.6.26.89.41,17,9,33.68,5.56,49.83-2.17,9.47-4.54,18.17-10.52,24.24-19.5.72-1.07,1.19-2.31,2.24-2.23,0,4.23-1,8.75.19,12.63,2.69,9.06-2,17-2.46,25.55a102.14,102.14,0,0,0,1,17.81c.17,1.34,2.67,3,4.31,3.29.92.16,2.86-2,3.34-3.46,1.65-4.94,2.85-10,4.23-15.07l1.3-.16c.64,1.7,1.59,3.35,1.83,5.1a20.81,20.81,0,0,1,.09,7.46c-2.62,10.95,2,21,3.8,31.33.57,3.24,2.34,5.77,6.87,2.47,1.42,12.38,2.75,24,4.06,35.48-7-3-14.26-6.47-21.81-9.15a84.44,84.44,0,0,0-15.5-3.37c-4.13-.63-6.11,1.22-5.42,5.78a140.93,140.93,0,0,1,1.73,17.37c.1,4,1.69,4.86,5.37,5.14,13.62,1,23.92,8.21,32.34,18.51a7.41,7.41,0,0,1,.66,1.68c-10.7-10-21-19.7-37.64-18.66.85,9,1.65,17.56,2.41,25.74.72.5,1,.82,1.24.85,13.59,1.62,16.15,4.22,17.85,18,.32,2.6.9,5.17,1.47,8.38,6.26-1,12.15-1.75,18-3,.86-.18,1.86-2.54,1.79-3.83-.24-3.77-1-7.51-.45-11.46a85.06,85.06,0,0,1,1.69,8.73c.39,4.43,1.83,7,6.81,5.14.58-.22,1.31,0,2.92,0-9.08,4.7-19.25,3.9-27.39,9.19,6,4.13,10.9,8.6,16.67,11.12,4.13,1.81,9.4,1,14.16,1.34,1.62.11,3.24,0,5.26,0-1-4-2-8.21-3-12.46l.5-.2L765.74,768l-.47.31-5.53-8.53c-2.58,4.69-5.27,8.84-7.22,13.31s-2.11,9,2.39,12.14c4.82,3.4,3,9,4.77,13.34.3.74.16,1.7.55,2.37,3.13,5.38,2.5,6.61-3.58,9a23.45,23.45,0,0,0-7.75,4.89c-3.31,3.29-2.45,7.1,1.4,9.08,6.11,3.14,12.61,5.5,19,8.17,1.22.51,2.64.71,3.63,1.48a3.67,3.67,0,0,1,1.43,2.83c-.16.7-1.71,1.55-2.66,1.56-18,.34-35.92.21-52.56-8.63-5.77-3.06-12.6-4.07-18.47-7-13.53-6.69-23.88-17.44-33.76-28.52s-19.58-22.8-30.21-33.73c1,12.35,2,24.7,2.83,37.06a87.75,87.75,0,0,1-.16,14.41c-1.13,10.9-2.66,21.77-4,32.65ZM655.5,664.67c3.52,7.64,2.77,16.82,7.43,24.05l1.6-.47-1.7-9.21c11-3.9,8.68,5.7,11.2,11.62,1.75-1.58,4-2.76,3.9-3.67-.94-8.5-2.29-17-3.51-25.4-10.25.33-3,7.59-5.75,10.83-6.37,2.05-7.53,1.44-9.1-5-.27-1.13-.31-2.46-1-3.32-1.33-1.78-2.7-2.14-3.07.73-2.34-6.13-7.87-5.2-12.68-5.46-1.27-.06-2.63,1.54-4,2.37,1.25,1.08,2.48,3,3.76,3.07,3.28.09,4.37,1.42,4.48,4.49.17,4.81.7,9.6.92,14.4.12,2.59.85,4,3.83,3.83s3-2,2.71-4.14c-.78-5.75-1.63-11.48-2.45-17.12ZM640.22,690c0,8.07,0,15.37,0,22.68,0,3.85,1.62,5.51,6,4.14a37.74,37.74,0,0,1-.28-6.85c.15-1.23,1.33-3.13,2.31-3.32,4.18-.8,7.27,1.49,8,5.75s2.46,6.39,7.33,4.43c-.73-3.65-1.54-7.31-2.15-11a8.63,8.63,0,0,1,.08-4.35c2.47-6.34-.93-12.05-7.8-12.24C649.22,689.12,644.75,689.71,640.22,690Zm-13.38-.4c2.15,4.73,3.93,8.66,6.12,13.5l-4.05-2c.82,6.54,1.56,12.29,2.27,18s1.42,11.49,2.22,18c4.11-1.69,8.84-2.2,10.89-4.8,3.76-4.78-2.56-6.76-4.73-10.16l6.09,1.28c-1.87-2.37-2.55-4.07-3.75-4.62-4.62-2.13-5.28-5.16-4.33-10C639.09,701,637.24,692.48,626.84,689.59Zm89.36,46.9c-.78-5-1.29-10.29-2.47-15.39-1.1-4.75-4.36-7.68-9.35-8.43-4.76-.72-5.85.26-5.18,4.91.53,3.6,1.26,7.18,1.73,10.79C702.6,741.08,702.93,741.29,716.2,736.49Zm-30.93-5.11,1.64-2.13c-2.58-2.66-4.94-5.58-7.77-7.92-4.06-3.36-7.89-2.55-11,1.83-3.39,4.78-2.91,10-1.78,15.33a12.37,12.37,0,0,0,17.37,8.83,8.85,8.85,0,0,0,3.68-4.23c.47-1-.33-2.6-.55-3.92-1.32.46-3,.59-3.89,1.45-3.15,2.88-8.6,2.32-9.91-1.73a22.38,22.38,0,0,1-.5-9.65,6,6,0,0,1,3.67-4c1-.31,2.75,1.74,4.16,2.73C682,729.13,683.65,730.25,685.27,731.38Zm-4.46-44.54c7.8-.16,12.21-4,10.07-9.09l-7,2.89c-1.91-3.57-2.1-6.29,2.39-7.37,3.75-.9,4.09-3.23,2.52-6.84l-6.85,2.45c-3.51-5.46,1.46-5.51,4-6.52,3.38-1.31,5.68-2.62,2.88-6.86-2.82.94-5.45,1.9-8.13,2.69-4.07,1.2-5.32,3.57-4.26,7.81C678.13,672.74,679.32,679.61,680.81,686.84ZM666,747.16c.27-.36.54-.71.8-1.07q-4.39-10.71-8.8-21.4c-.31-.77-.42-1.91-1-2.23a12.77,12.77,0,0,0-5.09-2,3.9,3.9,0,0,0-2.9,2.43,65,65,0,0,0-1.74,13.13c0,1.43,2.75,4.15,4.06,4,4.07-.34,7,.24,9.41,3.95C661.69,745.58,664.16,746.16,666,747.16Zm18.55-29.22,1.83.56c.44-1.36,1.26-2.73,1.23-4.07-.06-2.13-1.09-4.27-.95-6.36.11-1.76,1.3-3.44,2-5.16l1.69.47c.69,3.31,1.38,6.62,2.09,10.06,3.34-1.83,2.79-18.43-.5-28-4,0-3.09,2.8-3,5.23.15,3.29,1.5,7.19-4.07,8.38-.94-2.71-1.85-5.36-2.76-8l-1.71.35C680.47,700.38,683.39,709.06,684.5,717.94Zm11.2-3.18c-8.25,3.53-9.19,5.16-7.79,12.93.47,2.61.74,5.27,1.26,7.87.79,4,1.7,7.91,2.63,12.13,11.19-6.57,11.52-8.31,6.87-11.37l-4.75,3.5c-2.26-3.2-2.55-5.86,1.13-8,2.82-1.65,2.76-3.8.77-6.32L691.63,728c-2.36-3.18-.37-4.72,1.83-6.12C696.06,720.22,697.93,718.36,695.7,714.76Zm-20.83,3.41,1.35-1.12c-1.77-6.09-3.53-12.18-5.12-17.66,2.38-2.64,8.6-.63,5.93-5.85l-15.61-2.78c.73,1.58,1.07,3.83,2.05,4.17,3.95,1.32,4.26,4.77,5.23,7.8,1.27,3.93,2.12,8,3.45,11.91C672.6,716,673.94,717,674.87,718.17Z" transform="translate(-370.29 -215.88)"/><path d="M370.29,833.2c3.19-1.52,6.72-2.57,9.47-4.66,3.89-3,8.59-1.82,12.56-3.45a37.53,37.53,0,0,0,10.1-6.86c9.33-1.35,10.09-1.86,10.45-7.4,4.38-1.24,9.43-1.38,12.51-3.91a25.81,25.81,0,0,1,8.64-4.71c2.14-.72,4.46-.92,6.55-1.75a9.49,9.49,0,0,0,3.84-3.18l18.36-6.87c0,.06.13-1.48.37-1.49,5.39-.3,10.21-2.79,14.48-5.39s10.1-1.87,13.21-6.72c.52-.8,2.76-.33,4-.86a13.22,13.22,0,0,0,5.26-3.82c4.45-1.66,8.93-3.28,13.35-5,3.45-1.35,4.3-3.47,1.65-6.41,8.21,11.84,16.71,23.46,24.49,35.55,3.73,5.81,7.84,12.42,1,19.54L550,812.6c-1.3,2.64-3.88,5.37-3.49,7.58,1.06,6-2.47,8.71-6.41,11.52l.26-.09-7.09,3.69c.28,2.42.66,5.66,1,8.9h-164ZM526.45,777l-1.78.72c1.17,3.56,2.23,7.16,3.55,10.67a95.71,95.71,0,0,0,4.67,10.86c.49.93,2.46,1.08,3.75,1.59.26-1,1-2.21.7-2.89C533.81,790.87,530.11,783.93,526.45,777Z" transform="translate(-370.29 -215.88)"/><path class="cls-1" d="M540.09,831.7c3.94-2.81,7.47-5.49,6.41-11.52-.39-2.21,2.19-4.94,3.49-7.58l-9.41,3.21c6.87-7.12,2.76-13.73-1-19.54-7.78-12.09-16.28-23.71-24.49-35.55l-2-4.39c-.08-1.05-.17-2.12-.29-3.65,7.9,4.67,15.25,9,22.66,13.28a16.44,16.44,0,0,0,1.59-2c.29,1.2.53,2.22.93,3.87,2.31-6,0-12.7-3.93-15.79-4.13-3.23-7.68-7.21-11.46-10.88-.23-.21-.26-.62-.45-.88-1.17-1.62-2.36-3.21-3.54-4.82,2.62-.66,5.31-2,7.86-1.81,3.64.31,7.17,1.79,12.2,3.16a47.31,47.31,0,0,0-4.26-4.42c-1.94-1.51-4.18-2.63-6.09-4.17-2.27-1.83-4.06-3.51-1.35-6.92,2.36-3,4.46-3.93,7.51-1.9,9.87,6.57,18.86,13.91,24.69,24.71,2.46,4.56,6.87,8,9.83,12.38q8.89,13.05,17.06,26.58c1.55,2.59,5.59,5,2.33,9,1.28,1,2.69,2.87,3.82,2.71,4.14-.57,5.28,1.15,5.52,4.92.31,4.8.37,9.87,2,14.25,1.2,3.12,4.89,5.29,8.07,8.5l-2,3.26,7.48,18.44h-62c-.56-2.41-1.09-4.81-1.68-7.2C547.74,829.37,547.71,829.36,540.09,831.7Z" transform="translate(-370.29 -215.88)"/><path class="cls-1" d="M750.87,649.84c1.45,5.16,3,10.29,4.3,15.5.73,3,.7,6.22,1.53,9.2q3.84,13.68,8.11,27.25c1.41,4.51,3.13,5.34,8.79,4.7l-3-13.88.87-.12c-1.29-2.86-2.57-5.72-4-8.92,7.36-.48,9.11,3.88,10.77,8.73,2.47,7.2,7.26,13.8,1.47,21.94-2.78,3.89-3.63,9.21-5,14-.37,1.26.25,3,.79,4.33,8.39,20.75,13.27,42.49,18.57,64.15,3.28,13.37,7.76,26.45,11.61,39.69.74,2.54,1.09,5.2,1.61,7.81h-5c-4.2-10.11-8.44-20.2-12.58-30.33-6.41-15.66-13.42-31.12-18.92-47.1-6.73-19.58-12.57-39.5-18-59.5-2.26-8.4-2.65-17.36-3.34-26.1-.71-8.92-.86-17.89-1-26.85,0-1.46,1.55-2.94,2.39-4.41Zm9.58,60.82-6.19-13-1.72.69c3,8.23,6.05,16.47,9.5,25.87C764,718.26,756,715.09,760.45,710.66Z" transform="translate(-370.29 -215.88)"/><path class="cls-1" d="M844.29,844.2c-3.86-10.58-7.39-21.3-11.69-31.69-3.68-8.91-8.28-17.43-12.38-26.17a66.14,66.14,0,0,1-2.66-7c-1.83-5.39-1.54-10.24,2.54-14.87,2.6-3,4.11-6.84,6.33-10.16.51-.75,1.93-.89,3.08-1.37l-.79-1.12L839,739.72c1.17,2.89,2.57,5.49,3.28,8.27,3.22,12.56,6.5,25.1,9.27,37.76,3.89,17.76,6,35.73,4.51,54a33.86,33.86,0,0,0,.22,4.48Z" transform="translate(-370.29 -215.88)"/><path d="M540.09,831.7c7.62-2.34,7.65-2.33,9.52,5.3.59,2.39,1.12,4.79,1.68,7.2h-15l4.06-12.59Z" transform="translate(-370.29 -215.88)"/><path class="cls-1" d="M704.29,844.2c5.42-5.28,7.24-6.42,17,0Z" transform="translate(-370.29 -215.88)"/><path class="cls-1" d="M740.29,844.2c-1.42-4.27.29-5.89,4.3-4.37,2.43.92,4.48,2.87,6.7,4.37Z" transform="translate(-370.29 -215.88)"/><path class="cls-1" d="M540.35,831.61q-2,6.3-4.06,12.59h-2c-.37-3.24-.75-6.48-1-8.9Z" transform="translate(-370.29 -215.88)"/><path d="M815.13,549.32l-2.4,3c-1.74-4-2.52-8.57-5.22-11.21-3.74-3.64-2.2-7.87-3.32-11.73a19,19,0,0,1-.16-3.48c-.51-5.47-.53-11.16-6.08-13.91.86-2.3,1.55-4.17,2.26-6.08.48,1.14,1,2.5,1.61,3.87l1.82-.17a82,82,0,0,0-.89-8.17c-.56-2.75-1.59-5.42-2.77-9.31,8.09,3.89,8.57,10.48,11.26,15.8l-1.71.91c-.81-1.77-1.61-3.54-2.55-5.62-1.59,4.84-.82,6.19,3.38,6.86a41.38,41.38,0,0,1,9.23,2.28H807.43c3.07,8.82,5.38,17.15,8.87,24.95,3.12,7,1.73,13.54-.79,20.4C815.39,554.9,815.26,552.14,815.13,549.32Z" transform="translate(-370.29 -215.88)"/><path d="M802.9,583.18q-2.19-15.64-4.37-31.29l.81-.93c2.44,2.36,4.52,5.39,7.4,6.94,4.53,2.45,3.43,5.78,2.59,9.27-1.16,4.83-2.48,9.63-3.8,14.42a5.49,5.49,0,0,1-1.07,1.54Z" transform="translate(-370.29 -215.88)"/><path d="M553.44,391.11a86.15,86.15,0,0,1,9.29,2.72c.88.36,1.14,2.26,1.68,3.46-1,.31-2.26,1.18-2.82.84-3.07-1.87-6-4-8.91-6.1Z" transform="translate(-370.29 -215.88)"/><path d="M832.89,567q1.43-6.78,2.86-13.56l1.63.36q-1.53,6.76-3.07,13.52Z" transform="translate(-370.29 -215.88)"/><path class="cls-1" d="M876.31,683.05c-4,6.33-10.87,6.31-17,8l17.19-8Z" transform="translate(-370.29 -215.88)"/><path d="M815.14,585.42l-2.89-8.37c4.19,1.49,4.32,1.8,4.16,7.94Z" transform="translate(-370.29 -215.88)"/><path class="cls-1" d="M670.71,392.07l10.66,14c3.25.55,6.68,1,10,1.73,6.23,1.39,10.35-.45,13.68-6.19.32-.55,1.34-.68,2-1.06,2.64-1.51,5.26-3,8.63-5l7.73-.4c1,5-5.29,7.24-5.52,12.49l4.07-5.83,1.09.76-1.48,6,.54.25c2.46-6.23,4.92-12.46,7.33-18.54l-3.43.85c1.3-7.69,2.56-15.06,3.88-22.86l-3.71.45c-2.66-6.84-9.65-7.77-15.11-10a49.78,49.78,0,0,0-18.52-3.09c-5.3,0-9.46-1.5-14.06-3.63-2.42-1.13-6.22.73-9,1.19-1.08-3.18-2-6-3-8.75l-.81.28-1.53,8c-5.47-.23-9.27-6.85-15.62-3.89-.66.31-2.39-.53-2.94-1.32-3.65-5.23-9.19-9.47-9-16.74l7.9-2.18-1.45-.55c0-2.32.59-4.83-.11-6.91-1.71-5-2.68-10.29-6.38-14.74-2.26-2.72-2.5-7.13-3.09-11.12,4.47,1.31,8.26,3,12.07-.08a2.45,2.45,0,0,1,2-.14c5.68,1.83,9.63-2,14.23-4,2.72-1.18,5.94-1.2,9-1.76.23-.57.76-2.32.95-2.28,3.44.64,6.77-3.58,10.72,1,2.4,2.78,8.22,2.33,12.11,4.15,7.7,3.62,15.67,7.06,22.55,12,10.1,7.17,11.85,18.84,12.89,30.21.47,5.1-1.06,10.38-.77,15.52a16.33,16.33,0,0,0,3.44,8.61c6,7.64,5.73,15.12.59,22.89a8.81,8.81,0,0,0-.57,1.73l3.82-1.11c-.56,8.87-1.09,17.4-1.67,25.94a62.43,62.43,0,0,1-.91,8.88,123.69,123.69,0,0,1-3.35,12.05c-1.69,5.25-3.59,10.44-5.53,16.07-3.51-1.29-2.41,2.38-2.91,5-5,.64-8.16-2.87-11.65-5.21-3.78-2.53-7.16-5.64-11.21-8.89,10.28.37,2.64-6.93,4.52-9.82-5-.32-10.29-.21-15.41-1.12s-9.56-3.69-11.14-9.43c-.43-1.56-1.16-3.42-2.36-4.33-6-4.54-4.36-11.33-5.39-17.32C669.33,393.28,670.41,392.47,670.71,392.07Zm-3.61-57.34c2.8-6.13,2.43-11.65-2.24-16.14C657.85,325.29,667.08,329.16,667.1,334.73Z" transform="translate(-370.29 -215.88)"/><path class="cls-1" d="M805.76,651.05q-4.75-16.15-9.5-32.31l1.53-.41c4.45,12.36,11.81,23.85,11.64,37.89-8.63-.86-16.07-1.63-20.45-9.12a30.61,30.61,0,0,0-4.82-5.69c-.74-.74-2.07-1.52-2.92-1.34s-1.65,1.65-1.67,2.58c-.14,6.76-.07,13.53-.07,21.86,10.28-2.36,19.68-4.4,29-6.78,1.46-.37,2.53-2.24,3.81-3.45,4.8,9-4.51,14.78-5,22.63l-1.34.1c-.15-1.48-.32-3-.42-4.44-.13-1.79-.23-3.6-.28-5.4s0-3.56,0-5.64c-2.62.22-5.21.5-7.81.63-4.78.23-8.09,1.54-7.15,7.47.3,2-.74,4.11-1.16,6.18l-1.59.47c-1.15-2.82-2-5.82-3.56-8.38a6,6,0,0,0-4.38-2.54c-6.44,0-12.87.54-19.37.15l13.49-1.7c-.17-13.63,4.86-26.95-1.5-40.21,5-1.85,6.22,2.08,8.07,4.28,5.13,6.11,9.79,12.6,15.08,18.55,2.28,2.56,5.65,4.14,8.53,6.17Z" transform="translate(-370.29 -215.88)"/><path class="cls-1" d="M680.69,434.65c-8.19-2.2-14.88-3.88-21.48-5.81-3.8-1.11-7.37-6.48-7.22-10.24.26-7,.43-14,.83-21,.23-4.07,3.51-4.89,6.72-5.28a9.11,9.11,0,0,1,3.21.49c5.25,10.92,10.33,21.15,15.07,31.53C679.2,427.32,679.65,430.76,680.69,434.65Z" transform="translate(-370.29 -215.88)"/><path class="cls-1" d="M656.58,474c3.35-.58,6.7-1.25,10.08-1.7,1.63-.22,3.52.48,4.94-.1,6.18-2.54,9.1,1,12.21,5.48,3.31,4.76-2.29,5.82-3.38,8.6-.71,1.79-4.07,1.82-6.7-.63-2.38-2.23-6.33-2.69-9.36-4.35a94.45,94.45,0,0,1-8.25-5.62Z" transform="translate(-370.29 -215.88)"/><path class="cls-1" d="M750.93,649.91l-1.32-12.74c-3.77.72-7.75-1.23-7.94-4.14-.25-3.72,1-7.34,4.52-8.63,2.9-1.06,6.37-.58,9.82-.8l1.37-8.73,2,.29c-.71,3.94-1.17,7.94-2.17,11.8-2,7.65-4.27,15.22-6.4,22.85Zm-8.3-16.24,7.43-1c.08-.39.17-.79.26-1.19a35.06,35.06,0,0,0-5.61-1.92C744.4,629.48,743.68,631.54,742.63,633.67Z" transform="translate(-370.29 -215.88)"/><path class="cls-1" d="M653.74,391.32c.37-11.77,1.28-10.2,7.2-10.75l-2.08-2,.46-1,8.91,3.87-.21,1.21-2.25.48c.78,3.82,1.58,7.72,2.38,11.62l-1.6.37-1.79-4.4Z" transform="translate(-370.29 -215.88)"/><path class="cls-1" d="M769,611.28c-3.14-14.79-6.9-29.52-5-44.84l1.8-.19q2.38,22.49,4.78,45Z" transform="translate(-370.29 -215.88)"/><path class="cls-1" d="M627.23,415.06c-11.49,3.52-20,2.46-25.1-2.61,3.36-.59,7-1.69,10.69-1.73,3.42,0,6.84,1.29,10.3,1.55C625.13,412.43,627.7,410.88,627.23,415.06Z" transform="translate(-370.29 -215.88)"/><path class="cls-1" d="M731.28,273.28c1,5.26-2.47,5-6.59,4.68-.8-4-1.63-8.21-2.52-12.71,3.78-.55,5.57.68,6.64,3.56a32.19,32.19,0,0,0,2.61,4.63Z" transform="translate(-370.29 -215.88)"/><path d="M640.22,690c4.53-.28,9-.87,13.44-.76,6.87.19,10.27,5.9,7.8,12.24a8.63,8.63,0,0,0-.08,4.35c.61,3.69,1.42,7.35,2.15,11-4.87,2-6.63-.19-7.33-4.43s-3.8-6.55-8-5.75c-1,.19-2.16,2.09-2.31,3.32a37.74,37.74,0,0,0,.28,6.85c-4.35,1.37-6-.29-6-4.14C640.23,705.36,640.22,698.06,640.22,690Zm5.55,5.79c0,3.62-.2,6.88,4.76,6,2.44-.42,6-.72,4.73-4C653.5,693.2,649.27,695.81,645.77,695.78Z" transform="translate(-370.29 -215.88)"/><path d="M626.84,689.59c10.4,2.89,12.25,11.43,10.73,19.23-1,4.89-.29,7.92,4.33,10,1.2.55,1.88,2.25,3.75,4.62l-6.09-1.28c2.17,3.4,8.49,5.38,4.73,10.16-2,2.6-6.78,3.11-10.89,4.8-.8-6.55-1.5-12.29-2.22-18s-1.45-11.51-2.27-18l4.05,2C630.77,698.25,629,694.32,626.84,689.59Z" transform="translate(-370.29 -215.88)"/><path d="M716.2,736.49c-13.27,4.8-13.6,4.59-15.27-8.12-.47-3.61-1.2-7.19-1.73-10.79-.67-4.65.42-5.63,5.18-4.91,5,.75,8.25,3.68,9.35,8.43C714.91,726.2,715.42,731.45,716.2,736.49Z" transform="translate(-370.29 -215.88)"/><path d="M685.27,731.38c-1.62-1.13-3.25-2.25-4.87-3.39-1.41-1-3.13-3-4.16-2.73a6,6,0,0,0-3.67,4,22.38,22.38,0,0,0,.5,9.65c1.31,4.05,6.76,4.61,9.91,1.73.94-.86,2.57-1,3.89-1.45.22,1.32,1,2.92.55,3.92a8.85,8.85,0,0,1-3.68,4.23,12.37,12.37,0,0,1-17.37-8.83c-1.13-5.29-1.61-10.55,1.78-15.33,3.1-4.38,6.93-5.19,11-1.83,2.83,2.34,5.19,5.26,7.77,7.92Z" transform="translate(-370.29 -215.88)"/><path d="M655.56,664.82c.36-2.9,1.73-2.54,3.06-.76.64.86.68,2.19,1,3.32,1.57,6.48,2.73,7.09,9.1,5,2.72-3.24-4.5-10.5,5.75-10.83,1.22,8.44,2.57,16.9,3.51,25.4.1.91-2.15,2.09-3.9,3.67-2.52-5.92-.22-15.52-11.2-11.62l1.7,9.21-1.6.47c-4.66-7.23-3.91-16.41-7.43-24.05Z" transform="translate(-370.29 -215.88)"/><path d="M680.81,686.84c-1.49-7.23-2.68-14.1-4.36-20.84-1.06-4.24.19-6.61,4.26-7.81,2.68-.79,5.31-1.75,8.13-2.69,2.8,4.24.5,5.55-2.88,6.86-2.57,1-7.54,1.06-4,6.52l6.85-2.45c1.57,3.61,1.23,5.94-2.52,6.84-4.49,1.08-4.3,3.8-2.39,7.37l7-2.89C693,682.85,688.61,686.68,680.81,686.84Z" transform="translate(-370.29 -215.88)"/><path d="M666,747.16c-1.79-1-4.26-1.58-5.25-3.11-2.38-3.71-5.34-4.29-9.41-3.95-1.31.11-4.06-2.61-4.06-4A65,65,0,0,1,649,722.93a3.9,3.9,0,0,1,2.9-2.43,12.77,12.77,0,0,1,5.09,2c.57.32.68,1.46,1,2.23q4.39,10.69,8.8,21.4C666.49,746.45,666.22,746.8,666,747.16Zm-14.34-12.51,5.33,1.69-3.1-8.19-1,.28Z" transform="translate(-370.29 -215.88)"/><path d="M684.5,717.94c-1.11-8.88-4-17.56-4.11-26.56l1.71-.35c.91,2.66,1.82,5.31,2.76,8,5.57-1.19,4.22-5.09,4.07-8.38-.11-2.43-1-5.21,3-5.23,3.29,9.57,3.84,26.17.5,28-.71-3.44-1.4-6.75-2.09-10.06l-1.69-.47c-.72,1.72-1.91,3.4-2,5.16-.14,2.09.89,4.23.95,6.36,0,1.34-.79,2.71-1.23,4.07Z" transform="translate(-370.29 -215.88)"/><path d="M655.5,664.67l-3.34,1.56c.82,5.64,1.67,11.37,2.45,17.12.29,2.09.34,3.95-2.71,4.14s-3.71-1.24-3.83-3.83c-.22-4.8-.75-9.59-.92-14.4-.11-3.07-1.2-4.4-4.48-4.49-1.28,0-2.51-2-3.76-3.07,1.33-.83,2.69-2.43,4-2.37,4.81.26,10.34-.67,12.69,5.48C655.56,664.82,655.5,664.67,655.5,664.67Z" transform="translate(-370.29 -215.88)"/><path d="M695.7,714.76c2.23,3.6.36,5.46-2.24,7.13-2.2,1.4-4.19,2.94-1.83,6.12l4.19-2.52c2,2.52,2,4.67-.77,6.32-3.68,2.15-3.39,4.81-1.13,8l4.75-3.5c4.65,3.06,4.32,4.8-6.87,11.37-.93-4.22-1.84-8.16-2.63-12.13-.52-2.6-.79-5.26-1.26-7.87C686.51,719.92,687.45,718.29,695.7,714.76Z" transform="translate(-370.29 -215.88)"/><path d="M674.87,718.17c-.93-1.17-2.27-2.2-2.72-3.53-1.33-3.91-2.18-8-3.45-11.91-1-3-1.28-6.48-5.23-7.8-1-.34-1.32-2.59-2.05-4.17L677,693.54c2.67,5.22-3.55,3.21-5.93,5.85,1.59,5.48,3.35,11.57,5.12,17.66Z" transform="translate(-370.29 -215.88)"/><path class="cls-1" d="M526.45,777c3.66,7,7.36,13.91,10.89,20.95.34.68-.44,1.91-.7,2.89-1.29-.51-3.26-.66-3.75-1.59a95.71,95.71,0,0,1-4.67-10.86c-1.32-3.51-2.38-7.11-3.55-10.67Z" transform="translate(-370.29 -215.88)"/><path d="M760.45,710.66c-4.42,4.43,3.55,7.6,1.59,13.53-3.45-9.4-6.47-17.64-9.5-25.87l1.72-.69Z" transform="translate(-370.29 -215.88)"/><path d="M742.63,633.67c1-2.13,1.77-4.19,2.08-4.13a35.06,35.06,0,0,1,5.61,1.92c-.09.4-.18.8-.26,1.19Z" transform="translate(-370.29 -215.88)"/><path class="cls-1" d="M645.77,695.78c3.5,0,7.73-2.58,9.49,2,1.24,3.24-2.29,3.54-4.73,4C645.57,702.66,645.78,699.4,645.77,695.78Z" transform="translate(-370.29 -215.88)"/><path class="cls-1" d="M651.61,734.65l1.24-6.22,1-.28,3.1,8.19Z" transform="translate(-370.29 -215.88)"/></svg>