<svg xmlns="http://www.w3.org/2000/svg" xmlns:xlink="http://www.w3.org/1999/xlink" viewBox="0 0 1841.09 1405.41"><defs><style>.cls-1{fill:url(#Dégradé_sans_nom);}.cls-2{fill:url(#Dégradé_sans_nom-2);}.cls-3{fill:url(#Dégradé_sans_nom_31);}.cls-4{fill:url(#Dégradé_sans_nom_28);}.cls-5{fill:url(#Dégradé_sans_nom_31-2);}.cls-6{fill:url(#Dégradé_sans_nom_41);}.cls-7{fill:url(#Dégradé_sans_nom_41-2);}.cls-8{fill:url(#Dégradé_sans_nom_41-3);}.cls-9{fill:url(#Dégradé_sans_nom-3);}.cls-10{fill:url(#Dégradé_sans_nom-4);}.cls-11{fill:url(#Dégradé_sans_nom-5);}.cls-12{fill:url(#Dégradé_sans_nom_28-2);}.cls-13{fill:url(#Dégradé_sans_nom_31-3);}.cls-14{fill:url(#Dégradé_sans_nom_28-3);}.cls-15{fill:url(#Dégradé_sans_nom_31-4);}.cls-16{fill:url(#Dégradé_sans_nom_28-4);}.cls-17{fill:none;}.cls-18{isolation:isolate;}.cls-19{clip-path:url(#clip-path);}.cls-20{fill:url(#Dégradé_sans_nom_3);}.cls-21{opacity:0.26;}.cls-126,.cls-21,.cls-24,.cls-43,.cls-55{mix-blend-mode:overlay;}.cls-22{clip-path:url(#clip-path-5);}.cls-23{fill:#f8f9fc;}.cls-104,.cls-24{opacity:0.33;}.cls-25{clip-path:url(#clip-path-6);}.cls-26{clip-path:url(#clip-path-7);}.cls-27{fill:#139cd6;}.cls-28{clip-path:url(#clip-path-8);}.cls-29{mask:url(#mask);}.cls-30{fill:url(#Dégradé_sans_nom_10);}.cls-31{clip-path:url(#clip-path-9);}.cls-32{mask:url(#mask-2);}.cls-33{fill:url(#Dégradé_sans_nom_10-2);}.cls-34{clip-path:url(#clip-path-10);}.cls-35{mask:url(#mask-3);}.cls-36{fill:url(#Dégradé_sans_nom_10-3);}.cls-37{clip-path:url(#clip-path-11);}.cls-38{mask:url(#mask-4);}.cls-39{fill:url(#Dégradé_sans_nom_10-4);}.cls-40{clip-path:url(#clip-path-12);}.cls-41{mask:url(#mask-5);}.cls-42{fill:url(#Dégradé_sans_nom_10-5);}.cls-44{clip-path:url(#clip-path-14);}.cls-45{fill:#4fe1fd;}.cls-46{clip-path:url(#clip-path-15);}.cls-47{clip-path:url(#clip-path-16);}.cls-48{clip-path:url(#clip-path-17);}.cls-49{mask:url(#mask-6);}.cls-50{fill:url(#Dégradé_sans_nom_27);}.cls-51{clip-path:url(#clip-path-18);}.cls-52{fill:url(#Dégradé_sans_nom_24);}.cls-53{opacity:0.53;}.cls-104,.cls-131,.cls-169,.cls-53,.cls-60,.cls-69,.cls-78{mix-blend-mode:multiply;}.cls-54{clip-path:url(#clip-path-20);}.cls-55{opacity:0.7;}.cls-56{clip-path:url(#clip-path-22);}.cls-57{clip-path:url(#clip-path-23);}.cls-58{mask:url(#mask-7);}.cls-59{fill:url(#Dégradé_sans_nom_30);}.cls-60{opacity:0.49;}.cls-61{clip-path:url(#clip-path-24);}.cls-62{fill:#c4c4c4;}.cls-63{clip-path:url(#clip-path-25);}.cls-64{clip-path:url(#clip-path-26);}.cls-65{mask:url(#mask-8);}.cls-66{fill:url(#Dégradé_sans_nom_27-2);}.cls-67{clip-path:url(#clip-path-27);}.cls-68{fill:url(#Dégradé_sans_nom_33);}.cls-69{opacity:0.56;}.cls-70{clip-path:url(#clip-path-29);}.cls-71{fill:#ec800f;}.cls-72{clip-path:url(#clip-path-30);}.cls-73{clip-path:url(#clip-path-31);}.cls-74{clip-path:url(#clip-path-32);}.cls-75{clip-path:url(#clip-path-33);}.cls-76{clip-path:url(#clip-path-34);}.cls-77{clip-path:url(#clip-path-35);}.cls-78{opacity:0.8;}.cls-79{clip-path:url(#clip-path-36);}.cls-80{fill:#97949a;}.cls-81{clip-path:url(#clip-path-37);}.cls-82{clip-path:url(#clip-path-38);}.cls-83{mask:url(#mask-9);}.cls-84{fill:url(#Dégradé_sans_nom_30-2);}.cls-85{clip-path:url(#clip-path-39);}.cls-86{clip-path:url(#clip-path-40);}.cls-87{mask:url(#mask-10);}.cls-88{fill:url(#Dégradé_sans_nom_27-3);}.cls-89{clip-path:url(#clip-path-41);}.cls-90{fill:url(#Dégradé_sans_nom_24-2);}.cls-91{clip-path:url(#clip-path-43);}.cls-92{clip-path:url(#clip-path-45);}.cls-93{clip-path:url(#clip-path-46);}.cls-94{mask:url(#mask-11);}.cls-95{fill:url(#Dégradé_sans_nom_30-3);}.cls-96{clip-path:url(#clip-path-47);}.cls-97{clip-path:url(#clip-path-48);}.cls-98{clip-path:url(#clip-path-49);}.cls-99{mask:url(#mask-12);}.cls-100{fill:url(#Dégradé_sans_nom_27-4);}.cls-101{clip-path:url(#clip-path-50);}.cls-102{fill:url(#Dégradé_sans_nom_33-2);}.cls-103{clip-path:url(#clip-path-51);}.cls-105{clip-path:url(#clip-path-52);}.cls-106{fill:#ff4d2b;}.cls-107{clip-path:url(#clip-path-53);}.cls-108{clip-path:url(#clip-path-54);}.cls-109{clip-path:url(#clip-path-55);}.cls-110{clip-path:url(#clip-path-56);}.cls-111{clip-path:url(#clip-path-57);}.cls-112{clip-path:url(#clip-path-58);}.cls-113{clip-path:url(#clip-path-59);}.cls-114{clip-path:url(#clip-path-60);}.cls-115{clip-path:url(#clip-path-61);}.cls-116{clip-path:url(#clip-path-62);}.cls-117{clip-path:url(#clip-path-63);}.cls-118{clip-path:url(#clip-path-64);}.cls-119{clip-path:url(#clip-path-65);}.cls-120{clip-path:url(#clip-path-66);}.cls-121{clip-path:url(#clip-path-67);}.cls-122{clip-path:url(#clip-path-68);}.cls-123{clip-path:url(#clip-path-69);}.cls-124{clip-path:url(#clip-path-70);}.cls-125{clip-path:url(#clip-path-71);}.cls-126{opacity:0.83;}.cls-127{clip-path:url(#clip-path-72);}.cls-128{clip-path:url(#clip-path-73);}.cls-129{mask:url(#mask-13);}.cls-130{fill:url(#Dégradé_sans_nom_30-4);}.cls-131{opacity:0.46;}.cls-132{clip-path:url(#clip-path-74);}.cls-133{clip-path:url(#clip-path-75);}.cls-134{fill:url(#Dégradé_sans_nom_33-3);}.cls-135{font-size:45.24px;fill:#350053;font-family:Montserrat-Black, Montserrat Black;font-weight:800;}.cls-136{letter-spacing:-0.05em;}.cls-137{letter-spacing:-0.01em;}.cls-138{letter-spacing:0em;}.cls-139{font-size:42.48px;font-family:Montserrat-Medium, Montserrat Medium;font-weight:500;letter-spacing:-0.01em;}.cls-139,.cls-141{fill:#6e6e6d;}.cls-140{letter-spacing:0em;}.cls-141{font-size:15.12px;font-family:Montserrat-Regular, Montserrat Regular;}.cls-142{letter-spacing:-0.01em;}.cls-143{letter-spacing:0em;}.cls-144{letter-spacing:-0.01em;}.cls-145{letter-spacing:-0.03em;}.cls-146{letter-spacing:-0.03em;}.cls-147{letter-spacing:0em;}.cls-148{letter-spacing:0em;}.cls-149{letter-spacing:0.01em;}.cls-150{letter-spacing:-0.01em;}.cls-151{letter-spacing:0.01em;}.cls-152{letter-spacing:-0.02em;}.cls-153{letter-spacing:0.12em;}.cls-154{letter-spacing:0em;}.cls-155{letter-spacing:-0.01em;}.cls-156{letter-spacing:0em;}.cls-157{letter-spacing:0.12em;}.cls-158{letter-spacing:-0.01em;}.cls-159{letter-spacing:-0.02em;}.cls-160{letter-spacing:0em;}.cls-161{letter-spacing:0.01em;}.cls-162{clip-path:url(#clip-path-77);}.cls-163{fill:url(#Dégradé_sans_nom_33-4);}.cls-164{clip-path:url(#clip-path-78);}.cls-165{fill:url(#Dégradé_sans_nom_34);}.cls-166{clip-path:url(#clip-path-79);}.cls-167{fill:url(#Dégradé_sans_nom_35);}.cls-168{fill:#0085a4;}.cls-170{clip-path:url(#clip-path-81);}.cls-171{fill:#dcdde0;}.cls-172{clip-path:url(#clip-path-82);}.cls-173{fill:#cacbce;}.cls-174{fill:#27164b;}.cls-175{clip-path:url(#clip-path-84);}.cls-176{mask:url(#mask-14);}.cls-177{fill:url(#Dégradé_sans_nom_40);}.cls-178{clip-path:url(#clip-path-86);}.cls-179{mask:url(#mask-15);}.cls-180{fill:url(#Dégradé_sans_nom_40-2);}.cls-181{clip-path:url(#clip-path-88);}.cls-182{mask:url(#mask-16);}.cls-183{fill:url(#Dégradé_sans_nom_40-3);}.cls-184{clip-path:url(#clip-path-90);}.cls-185{clip-path:url(#clip-path-91);}.cls-186{fill:#fff;}</style><linearGradient id="Dégradé_sans_nom" x1="-7.18" y1="1069.32" x2="-5.05" y2="1069.32" gradientTransform="matrix(118.02, 0, 0, -118.02, 188.98, 128504.36)" gradientUnits="userSpaceOnUse"><stop offset="0" stop-color="#fff"/><stop offset="1"/></linearGradient><linearGradient id="Dégradé_sans_nom-2" x1="-7.21" y1="1072.77" x2="-5.09" y2="1072.77" gradientTransform="matrix(118.02, 0, 0, -118.02, 185.31, 128141.69)" xlink:href="#Dégradé_sans_nom"/><linearGradient id="Dégradé_sans_nom_31" x1="11.44" y1="1052.51" x2="13.57" y2="1052.51" gradientTransform="matrix(22.99, 39, 35.73, -24.53, -38290.28, 27415.43)" gradientUnits="userSpaceOnUse"><stop offset="0" stop-color="#fff"/><stop offset="0.1" stop-color="#eee"/><stop offset="0.29" stop-color="#c3c3c3"/><stop offset="0.57" stop-color="#7d7d7d"/><stop offset="0.9" stop-color="#1e1e1e"/><stop offset="1"/></linearGradient><linearGradient id="Dégradé_sans_nom_28" x1="-1.66" y1="1076.04" x2="0.47" y2="1076.04" gradientTransform="matrix(322.57, 0, 0, -322.57, 466.67, 349437.48)" gradientUnits="userSpaceOnUse"><stop offset="0" stop-color="#fff"/><stop offset="0.01" stop-color="#fff"/><stop offset="0.07" stop-color="#e2e2e2"/><stop offset="0.22" stop-color="#a7a7a7"/><stop offset="0.36" stop-color="#747474"/><stop offset="0.5" stop-color="#4a4a4a"/><stop offset="0.64" stop-color="#2a2a2a"/><stop offset="0.77" stop-color="#131313"/><stop offset="0.89" stop-color="#050505"/><stop offset="1"/></linearGradient><linearGradient id="Dégradé_sans_nom_31-2" x1="6.05" y1="1071.26" x2="8.18" y2="1071.26" gradientTransform="matrix(59.1, 100.27, 91.87, -63.07, -98674.75, 69072.47)" xlink:href="#Dégradé_sans_nom_31"/><linearGradient id="Dégradé_sans_nom_41" x1="18.52" y1="1119.83" x2="20.65" y2="1119.83" gradientTransform="matrix(-25.76, 0, 0, 25.76, 531.11, -26974.39)" gradientUnits="userSpaceOnUse"><stop offset="0" stop-color="#fff"/><stop offset="0.07" stop-color="#d9d9d9"/><stop offset="0.21" stop-color="#989898"/><stop offset="0.35" stop-color="#626262"/><stop offset="0.47" stop-color="#373737"/><stop offset="0.58" stop-color="#191919"/><stop offset="0.68" stop-color="#070707"/><stop offset="0.74"/><stop offset="1"/></linearGradient><linearGradient id="Dégradé_sans_nom_41-2" x1="31.62" y1="1151.57" x2="33.75" y2="1151.57" gradientTransform="matrix(-14.34, 0, 0, 14.34, 552, -14650.49)" xlink:href="#Dégradé_sans_nom_41"/><linearGradient id="Dégradé_sans_nom_41-3" x1="36.07" y1="1151.43" x2="38.2" y2="1151.43" gradientTransform="matrix(-14.34, 0, 0, 14.34, 495.22, -14651.44)" xlink:href="#Dégradé_sans_nom_41"/><linearGradient id="Dégradé_sans_nom-3" x1="-2.77" y1="1073.41" x2="-0.64" y2="1073.41" gradientTransform="matrix(118.02, 0, 0, -118.02, 651.98, 128074.36)" xlink:href="#Dégradé_sans_nom"/><linearGradient id="Dégradé_sans_nom-4" x1="-2.71" y1="1071.24" x2="-0.58" y2="1071.24" gradientTransform="matrix(118.02, 0, 0, -118.02, 657.98, 128302.03)" xlink:href="#Dégradé_sans_nom"/><linearGradient id="Dégradé_sans_nom-5" x1="-4.57" y1="1072.19" x2="-2.44" y2="1072.19" gradientTransform="matrix(118.02, 0, 0, -118.02, 462.98, 128202.86)" xlink:href="#Dégradé_sans_nom"/><linearGradient id="Dégradé_sans_nom_28-2" x1="3.01" y1="1060.97" x2="5.13" y2="1060.97" gradientTransform="matrix(0, 51.61, 51.61, 0, -54916.16, 1249.75)" xlink:href="#Dégradé_sans_nom_28"/><linearGradient id="Dégradé_sans_nom_31-3" x1="20.46" y1="1018.57" x2="22.59" y2="1018.57" gradientTransform="matrix(7.92, 13.44, 12.31, -8.45, -12884.31, 9759.05)" xlink:href="#Dégradé_sans_nom_31"/><linearGradient id="Dégradé_sans_nom_28-3" x1="3.74" y1="1070.37" x2="5.86" y2="1070.37" gradientTransform="matrix(0, 88.34, 88.34, 0, -94255.65, 1147.09)" xlink:href="#Dégradé_sans_nom_28"/><linearGradient id="Dégradé_sans_nom_31-4" x1="19.96" y1="1048.73" x2="22.08" y2="1048.73" gradientTransform="matrix(12.49, 21.18, 19.41, -13.32, -20337.02, 15060.27)" xlink:href="#Dégradé_sans_nom_31"/><linearGradient id="Dégradé_sans_nom_28-4" x1="1.94" y1="1071.29" x2="4.06" y2="1071.29" gradientTransform="matrix(0, 149.77, 149.77, 0, -160812.31, 1695.85)" xlink:href="#Dégradé_sans_nom_28"/><clipPath id="clip-path" transform="translate(1144.3 -1276.12)"><rect class="cls-17" x="-1059.34" y="1318.76" width="1593.09" height="1062.06"/></clipPath><linearGradient id="Dégradé_sans_nom_3" x1="-1.31" y1="1078.21" x2="0.81" y2="1078.21" gradientTransform="matrix(570.01, 0, 0, -570.01, 1420.3, 615162.38)" gradientUnits="userSpaceOnUse"><stop offset="0" stop-color="#360055"/><stop offset="0.01" stop-color="#360055"/><stop offset="0.49" stop-color="#2b0044"/><stop offset="1" stop-color="#1b002d"/></linearGradient><clipPath id="clip-path-5" transform="translate(1144.3 -1276.12)"><rect class="cls-17" x="-1144.3" y="1276.12" width="1812.28" height="1219.18"/></clipPath><clipPath id="clip-path-6" transform="translate(1144.3 -1276.12)"><rect class="cls-17" x="-637.96" y="1293.49" width="1180.36" height="361.66"/></clipPath><clipPath id="clip-path-7" transform="translate(1144.3 -1276.12)"><rect class="cls-17" x="-570.85" y="1991.35" width="1184.56" height="512.76"/></clipPath><clipPath id="clip-path-8" transform="translate(1144.3 -1276.12)"><path class="cls-17" d="M-647.23,2293.71a11.2,11.2,0,0,0-10.68,11.68,11.19,11.19,0,0,0,11.69,10.68l238.54-10.71a.47.47,0,0,0,.45-.45.47.47,0,0,0-.45-.48l-238.54-10.72h-1"/></clipPath><mask id="mask" x="486.12" y="1017.58" width="250.96" height="22.65" maskUnits="userSpaceOnUse"><g transform="translate(1144.3 -1276.12)"><rect class="cls-1" x="-658.19" y="2293.7" width="250.96" height="22.65"/></g></mask><linearGradient id="Dégradé_sans_nom_10" x1="-7.18" y1="1069.32" x2="-5.05" y2="1069.32" gradientTransform="matrix(118.02, 0, 0, -118.02, 1333.28, 127228.24)" gradientUnits="userSpaceOnUse"><stop offset="0" stop-color="#00d6f0"/><stop offset="1" stop-color="#00d6f0"/></linearGradient><clipPath id="clip-path-9" transform="translate(1144.3 -1276.12)"><path class="cls-17" d="M-655,1523.36a11.21,11.21,0,0,0-10.68,11.69A11.2,11.2,0,0,0-654,1545.73L-415.47,1535a.47.47,0,0,0,.45-.44.47.47,0,0,0-.45-.49L-654,1523.36h-1"/></clipPath><mask id="mask-2" x="478.33" y="247.23" width="250.96" height="22.65" maskUnits="userSpaceOnUse"><g transform="translate(1144.3 -1276.12)"><rect class="cls-2" x="-665.97" y="1523.35" width="250.96" height="22.65"/></g></mask><linearGradient id="Dégradé_sans_nom_10-2" x1="-7.21" y1="1072.77" x2="-5.09" y2="1072.77" gradientTransform="matrix(118.02, 0, 0, -118.02, 1329.62, 126865.57)" xlink:href="#Dégradé_sans_nom_10"/><clipPath id="clip-path-10" transform="translate(1144.3 -1276.12)"><path class="cls-17" d="M336.24,1380.34a11.19,11.19,0,1,0,1,22.36l196.51-8.82v-4.71l-196.51-8.83h-1"/></clipPath><mask id="mask-3" x="1469.59" y="104.21" width="208.47" height="22.65" maskUnits="userSpaceOnUse"><g transform="translate(1144.3 -1276.12)"><rect class="cls-9" x="325.28" y="1380.33" width="208.47" height="22.65"/></g></mask><linearGradient id="Dégradé_sans_nom_10-3" x1="-2.77" y1="1073.41" x2="-0.64" y2="1073.41" gradientTransform="matrix(118.02, 0, 0, -118.02, 1796.28, 126798.24)" xlink:href="#Dégradé_sans_nom_10"/><clipPath id="clip-path-11" transform="translate(1144.3 -1276.12)"><path class="cls-17" d="M349,1863.93a11.19,11.19,0,1,0,1,22.36L533.75,1878v-5.85L350,1863.93h-1"/></clipPath><mask id="mask-4" x="1482.33" y="587.8" width="195.72" height="22.65" maskUnits="userSpaceOnUse"><g transform="translate(1144.3 -1276.12)"><rect class="cls-10" x="338.03" y="1863.92" width="195.72" height="22.65"/></g></mask><linearGradient id="Dégradé_sans_nom_10-4" x1="-2.71" y1="1071.24" x2="-0.58" y2="1071.24" gradientTransform="matrix(118.02, 0, 0, -118.02, 1802.28, 127025.91)" xlink:href="#Dégradé_sans_nom_10"/><clipPath id="clip-path-12" transform="translate(1144.3 -1276.12)"><path class="cls-17" d="M-65.22,1653.29A11.19,11.19,0,0,0-75.9,1665a11.19,11.19,0,0,0,11.68,10.68l238.55-10.71a.47.47,0,0,0,.44-.45.47.47,0,0,0-.44-.49l-238.55-10.71h-1"/></clipPath><mask id="mask-5" x="1068.13" y="377.16" width="250.96" height="22.65" maskUnits="userSpaceOnUse"><g transform="translate(1144.3 -1276.12)"><rect class="cls-11" x="-76.18" y="1653.28" width="250.96" height="22.65"/></g></mask><linearGradient id="Dégradé_sans_nom_10-5" x1="-4.57" y1="1072.19" x2="-2.44" y2="1072.19" gradientTransform="matrix(118.02, 0, 0, -118.02, 1607.28, 126926.74)" xlink:href="#Dégradé_sans_nom_10"/><clipPath id="clip-path-14" transform="translate(1144.3 -1276.12)"><rect class="cls-17" x="-586.25" y="1279.56" width="247.18" height="184.29"/></clipPath><clipPath id="clip-path-15" transform="translate(1144.3 -1276.12)"><rect class="cls-17" x="340.91" y="1616.18" width="247.18" height="184.29"/></clipPath><clipPath id="clip-path-16" transform="translate(1144.3 -1276.12)"><rect class="cls-17" x="-213.37" y="1400.76" width="102.77" height="102.77"/></clipPath><clipPath id="clip-path-17" transform="translate(1144.3 -1276.12)"><path class="cls-17" d="M-110.6,1452.14A51.38,51.38,0,0,1-162,1503.53a51.39,51.39,0,0,1-51.39-51.39A51.38,51.38,0,0,1-162,1400.76a51.38,51.38,0,0,1,51.38,51.38"/></clipPath><mask id="mask-6" x="879.59" y="73.3" width="205.45" height="205.45" maskUnits="userSpaceOnUse"><g transform="translate(1144.3 -1276.12)"><rect class="cls-12" x="-234.64" y="1379.49" width="145.31" height="145.31" transform="translate(-1049.51 291.43) rotate(-43.77)"/></g></mask><linearGradient id="Dégradé_sans_nom_27" x1="3.01" y1="1060.97" x2="5.13" y2="1060.97" gradientTransform="matrix(0, 51.61, 51.61, 0, -54916.16, 1249.75)" gradientUnits="userSpaceOnUse"><stop offset="0" stop-color="#fff"/><stop offset="0.01" stop-color="#fff"/><stop offset="1" stop-color="#fff"/></linearGradient><clipPath id="clip-path-18" transform="translate(1144.3 -1276.12)"><path class="cls-17" d="M-203,1452.14a41.46,41.46,0,0,0,41.46,41.46,41.45,41.45,0,0,0,41.45-41.46,41.45,41.45,0,0,0-41.45-41.46A41.46,41.46,0,0,0-203,1452.14"/></clipPath><linearGradient id="Dégradé_sans_nom_24" x1="3.85" y1="1056.42" x2="5.97" y2="1056.42" gradientTransform="matrix(0, 41.64, 41.64, 0, -44146.11, 1253.89)" gradientUnits="userSpaceOnUse"><stop offset="0" stop-color="#00c6f3"/><stop offset="0.17" stop-color="#00bbed"/><stop offset="0.46" stop-color="#009fdc"/><stop offset="0.84" stop-color="#0071c1"/><stop offset="0.89" stop-color="#0069bc"/><stop offset="1" stop-color="#0069bc"/></linearGradient><clipPath id="clip-path-20" transform="translate(1144.3 -1276.12)"><rect class="cls-17" x="-207.29" y="1408.96" width="89.46" height="81.2"/></clipPath><clipPath id="clip-path-22" transform="translate(1144.3 -1276.12)"><rect class="cls-17" x="-191.79" y="1419.27" width="41.45" height="41.06"/></clipPath><clipPath id="clip-path-23" transform="translate(1144.3 -1276.12)"><path class="cls-17" d="M-152.34,1422.73c-4.9-6.3-17.25-3.76-27.59,5.67s-14.76,22.18-9.86,28.47,17.25,3.75,27.59-5.67,14.76-22.18,9.86-28.47"/></clipPath><mask id="mask-7" x="930" y="117.22" width="86.47" height="92.92" maskUnits="userSpaceOnUse"><g transform="translate(1144.3 -1276.12)"><polygon class="cls-13" points="-161.06 1393.34 -127.83 1449.7 -181.08 1486.26 -214.3 1429.89 -161.06 1393.34"/></g></mask><linearGradient id="Dégradé_sans_nom_30" x1="20.46" y1="1018.57" x2="22.59" y2="1018.57" gradientTransform="matrix(7.92, 13.44, 12.31, -8.45, -11740.01, 8482.93)" gradientUnits="userSpaceOnUse"><stop offset="0" stop-color="#fff"/><stop offset="1" stop-color="#fff"/></linearGradient><clipPath id="clip-path-24" transform="translate(1144.3 -1276.12)"><rect class="cls-17" x="-182.16" y="1412.34" width="62.03" height="81.25"/></clipPath><clipPath id="clip-path-25" transform="translate(1144.3 -1276.12)"><rect class="cls-17" x="222.34" y="1475.74" width="160.59" height="160.59"/></clipPath><clipPath id="clip-path-26" transform="translate(1144.3 -1276.12)"><path class="cls-17" d="M302.64,1636.33a80.3,80.3,0,1,1,80.3-80.3,80.39,80.39,0,0,1-80.3,80.3"/></clipPath><mask id="mask-8" x="1286.35" y="119.32" width="321.19" height="321.19" maskUnits="userSpaceOnUse"><g transform="translate(1144.3 -1276.12)"><rect class="cls-14" x="189.08" y="1442.48" width="227.11" height="227.11" transform="translate(-1011.64 669.75) rotate(-45)"/></g></mask><linearGradient id="Dégradé_sans_nom_27-2" x1="3.74" y1="1070.37" x2="5.86" y2="1070.37" gradientTransform="matrix(0, 88.34, 88.34, 0, -94255.65, 1147.09)" xlink:href="#Dégradé_sans_nom_27"/><clipPath id="clip-path-27" transform="translate(1144.3 -1276.12)"><path class="cls-17" d="M240.66,1556a62,62,0,1,0,62-62,62,62,0,0,0-62,62"/></clipPath><linearGradient id="Dégradé_sans_nom_33" x1="-6.36" y1="1065.19" x2="-4.24" y2="1065.19" gradientTransform="matrix(58.36, 0, 0, -58.36, 1756.32, 62446.47)" gradientUnits="userSpaceOnUse"><stop offset="0" stop-color="#ffe600"/><stop offset="0.14" stop-color="#ffd904"/><stop offset="0.39" stop-color="#ffb50e"/><stop offset="0.73" stop-color="#ff7c1e"/><stop offset="0.99" stop-color="#ff4d2b"/><stop offset="1" stop-color="#ff4d2b"/></linearGradient><clipPath id="clip-path-29" transform="translate(1144.3 -1276.12)"><rect class="cls-17" x="240.66" y="1545.36" width="82.84" height="43.93"/></clipPath><clipPath id="clip-path-30" transform="translate(1144.3 -1276.12)"><rect class="cls-17" x="294.44" y="1560.99" width="69.96" height="35.37"/></clipPath><clipPath id="clip-path-31" transform="translate(1144.3 -1276.12)"><rect class="cls-17" x="244.75" y="1520.37" width="74.07" height="24.75"/></clipPath><clipPath id="clip-path-32" transform="translate(1144.3 -1276.12)"><rect class="cls-17" x="327" y="1525.46" width="35.97" height="28.38"/></clipPath><clipPath id="clip-path-33" transform="translate(1144.3 -1276.12)"><rect class="cls-17" x="260.29" y="1500.93" width="80.52" height="19.34"/></clipPath><clipPath id="clip-path-34" transform="translate(1144.3 -1276.12)"><rect class="cls-17" x="256.11" y="1586.86" width="28.14" height="16.3"/></clipPath><clipPath id="clip-path-35" transform="translate(1144.3 -1276.12)"><rect class="cls-17" x="276.83" y="1601.06" width="40.2" height="15.95"/></clipPath><clipPath id="clip-path-36" transform="translate(1144.3 -1276.12)"><rect class="cls-17" x="284.92" y="1494.05" width="79.71" height="123.97"/></clipPath><clipPath id="clip-path-37" transform="translate(1144.3 -1276.12)"><rect class="cls-17" x="248.85" y="1501.9" width="65.33" height="64.72"/></clipPath><clipPath id="clip-path-38" transform="translate(1144.3 -1276.12)"><path class="cls-17" d="M311,1507.35c-7.72-9.92-27.19-5.92-43.5,8.94s-23.25,35-15.54,44.88,27.2,5.92,43.5-9,23.26-35,15.54-44.87"/></clipPath><mask id="mask-9" x="1357.67" y="184.91" width="136.29" height="146.46" maskUnits="userSpaceOnUse"><g transform="translate(1144.3 -1276.12)"><polygon class="cls-15" points="297.29 1461.03 349.66 1549.87 265.73 1607.49 213.37 1518.65 297.29 1461.03"/></g></mask><linearGradient id="Dégradé_sans_nom_30-2" x1="19.96" y1="1048.73" x2="22.08" y2="1048.73" gradientTransform="matrix(12.49, 21.18, 19.41, -13.32, -19192.72, 13784.14)" xlink:href="#Dégradé_sans_nom_30"/><clipPath id="clip-path-39" transform="translate(1144.3 -1276.12)"><rect class="cls-17" x="-512.2" y="1974.23" width="298.26" height="298.26"/></clipPath><clipPath id="clip-path-40" transform="translate(1144.3 -1276.12)"><path class="cls-17" d="M-213.94,2123.36a149.13,149.13,0,0,1-149.13,149.13A149.13,149.13,0,0,1-512.2,2123.36a149.13,149.13,0,0,1,149.13-149.13,149.13,149.13,0,0,1,149.13,149.13"/></clipPath><mask id="mask-10" x="483.11" y="549.12" width="596.24" height="596.24" maskUnits="userSpaceOnUse"><g transform="translate(1144.3 -1276.12)"><rect class="cls-16" x="-573.92" y="1912.51" width="421.7" height="421.7" transform="translate(-1569.7 338.84) rotate(-43.77)"/></g></mask><linearGradient id="Dégradé_sans_nom_27-3" x1="1.94" y1="1071.29" x2="4.06" y2="1071.29" gradientTransform="matrix(0, 149.77, 149.77, 0, -160812.31, 1695.84)" xlink:href="#Dégradé_sans_nom_27"/><clipPath id="clip-path-41" transform="translate(1144.3 -1276.12)"><path class="cls-17" d="M-482.25,2123.36a120.3,120.3,0,0,0,120.31,120.31,120.3,120.3,0,0,0,120.31-120.31,120.3,120.3,0,0,0-120.31-120.31,120.3,120.3,0,0,0-120.31,120.31"/></clipPath><linearGradient id="Dégradé_sans_nom_24-2" x1="2.52" y1="1069.21" x2="4.65" y2="1069.21" gradientTransform="matrix(0, 120.83, 120.83, 0, -129556.17, 1707.88)" xlink:href="#Dégradé_sans_nom_24"/><clipPath id="clip-path-43" transform="translate(1144.3 -1276.12)"><rect class="cls-17" x="-494.55" y="1998.06" width="259.63" height="235.66"/></clipPath><clipPath id="clip-path-45" transform="translate(1144.3 -1276.12)"><rect class="cls-17" x="-449.57" y="2027.96" width="120.28" height="119.16"/></clipPath><clipPath id="clip-path-46" transform="translate(1144.3 -1276.12)"><path class="cls-17" d="M-335.08,2038c-14.22-18.26-50.07-10.89-80.08,16.47s-42.82,64.36-28.61,82.63,50.07,10.89,80.08-16.47,42.82-64.36,28.61-82.63"/></clipPath><mask id="mask-11" x="629.41" y="676.59" width="250.94" height="269.66" maskUnits="userSpaceOnUse"><g transform="translate(1144.3 -1276.12)"><polygon class="cls-3" points="-360.37 1952.71 -263.96 2116.28 -418.48 2222.37 -514.89 2058.8 -360.37 1952.71"/></g></mask><linearGradient id="Dégradé_sans_nom_30-3" x1="11.44" y1="1052.51" x2="13.57" y2="1052.51" gradientTransform="matrix(22.99, 39, 35.73, -24.53, -37145.97, 26139.31)" xlink:href="#Dégradé_sans_nom_30"/><clipPath id="clip-path-47" transform="translate(1144.3 -1276.12)"><rect class="cls-17" x="-421.63" y="2007.86" width="180.01" height="235.81"/></clipPath><clipPath id="clip-path-48" transform="translate(1144.3 -1276.12)"><rect class="cls-17" x="-68.08" y="1996.35" width="685.18" height="685.18"/></clipPath><clipPath id="clip-path-49" transform="translate(1144.3 -1276.12)"><path class="cls-17" d="M-68.08,2338.94c0-189.2,153.38-342.59,342.59-342.59S617.1,2149.74,617.1,2338.94s-153.39,342.6-342.59,342.6-342.59-153.39-342.59-342.6"/></clipPath><mask id="mask-12" x="1076.22" y="720.23" width="685.18" height="685.18" maskUnits="userSpaceOnUse"><g transform="translate(1144.3 -1276.12)"><rect class="cls-4" x="-68.08" y="1996.35" width="685.18" height="685.18"/></g></mask><linearGradient id="Dégradé_sans_nom_27-4" x1="-1.66" y1="1076.04" x2="0.47" y2="1076.04" gradientTransform="matrix(322.57, 0, 0, -322.57, 1610.97, 348161.35)" xlink:href="#Dégradé_sans_nom_27"/><clipPath id="clip-path-50" transform="translate(1144.3 -1276.12)"><path class="cls-17" d="M-18.1,2340.54v1.9a.41.41,0,0,1,0,.11v.67c0,.12,0,.24,0,.37v1.29c0,.11,0,.2,0,.31v.56a.19.19,0,0,0,0,.08c0,.27,0,.52,0,.79v.12c0,.14,0,.28,0,.41v.07a297.34,297.34,0,0,0,2.67,33.6H533.75V2199.65a294.29,294.29,0,0,0-200.54-147.38l-1.79-.35h0l-1.79-.33h0l-1.34-.25h0l-.45-.08h0l-1.34-.24h0l-1.29-.23h-.08l-.39-.07h-.1l-1.25-.21h-.08l-.41-.07h-.06l-1.27-.2h-.1l-.4-.07h0l-.81-.12-.09,0-.39-.06h-.11l-1.22-.18-.13,0-.38-.06h-.12l-1.21-.17-.14,0-.37-.06h-.13l-.69-.1-.16,0-.34,0-.18,0-.36-.05h-.05l-.71-.09-.23,0-.32,0-.21,0-.72-.09h-.06l-.33,0-.22,0-.32,0-.23,0-.53-.06-.25,0-.3,0-.26,0-.3,0-.26,0-.5,0-.26,0-.29,0-.28,0-.28,0-.48-.05-.28,0-.28,0-.26,0-.36,0-.28,0-.43,0-.25,0-.32,0-.25,0-.43,0-.28,0-.36,0-.25,0-.34,0h-.21l-.52,0-.24,0-.33,0-.25,0-.37,0-.19,0-.52,0-.22,0-.36,0-.23,0-.47,0h-.18l-.44,0h-.23l-.35,0-.23,0-.52,0-.21,0-.36,0-.23,0-.38,0-.19,0-.54,0h-.19l-.38,0h-.22l-.47,0h-.14c-.16,0-.35,0-.51,0l-.19,0-.4,0h-.19l-.55,0h-.14l-.46,0h-.17l-.44,0H290l-.56,0h-.16l-.42,0h-.2l-.48,0h-.09l-.56,0h-.78l-.55,0h-2.7l-.51,0h-7.21c-162.31,0-293.88,131.57-293.88,293.88"/></clipPath><linearGradient id="Dégradé_sans_nom_33-2" x1="2.55" y1="1076.03" x2="4.67" y2="1076.03" gradientTransform="matrix(0, 254.09, 254.09, 0, -273154.41, 1428.68)" xlink:href="#Dégradé_sans_nom_33"/><clipPath id="clip-path-51" transform="translate(1144.3 -1276.12)"><path class="cls-17" d="M-18.1,2340.54a295.66,295.66,0,0,0,2.74,40.28H533.75V2199.65c-49.9-91.17-146.71-153-258-153-162.31,0-293.88,131.57-293.88,293.88"/></clipPath><clipPath id="clip-path-52" transform="translate(1144.3 -1276.12)"><rect class="cls-17" x="220.39" y="2056.47" width="92.9" height="43.24"/></clipPath><clipPath id="clip-path-53" transform="translate(1144.3 -1276.12)"><rect class="cls-17" x="218.46" y="2164.14" width="61.74" height="37"/></clipPath><clipPath id="clip-path-54" transform="translate(1144.3 -1276.12)"><rect class="cls-17" x="241.23" y="2249.06" width="30.94" height="25.23"/></clipPath><clipPath id="clip-path-55" transform="translate(1144.3 -1276.12)"><rect class="cls-17" x="283.45" y="2122.42" width="30.94" height="25.23"/></clipPath><clipPath id="clip-path-56" transform="translate(1144.3 -1276.12)"><rect class="cls-17" x="383.49" y="2280.83" width="36.75" height="36.6"/></clipPath><clipPath id="clip-path-57" transform="translate(1144.3 -1276.12)"><rect class="cls-17" x="286.75" y="2251.65" width="76.35" height="121.74"/></clipPath><clipPath id="clip-path-58" transform="translate(1144.3 -1276.12)"><rect class="cls-17" x="134.64" y="2220.47" width="80.11" height="97.1"/></clipPath><clipPath id="clip-path-59" transform="translate(1144.3 -1276.12)"><rect class="cls-17" x="77.11" y="2100.27" width="117.72" height="103.29"/></clipPath><clipPath id="clip-path-60" transform="translate(1144.3 -1276.12)"><rect class="cls-17" x="347.87" y="2356.02" width="90.19" height="131.41"/></clipPath><clipPath id="clip-path-61" transform="translate(1144.3 -1276.12)"><rect class="cls-17" x="202.19" y="2309.63" width="70.25" height="53.96"/></clipPath><clipPath id="clip-path-62" transform="translate(1144.3 -1276.12)"><rect class="cls-17" x="454.85" y="2353.36" width="18.3" height="19.36"/></clipPath><clipPath id="clip-path-63" transform="translate(1144.3 -1276.12)"><rect class="cls-17" x="450.57" y="2269.5" width="48.19" height="29.86"/></clipPath><clipPath id="clip-path-64" transform="translate(1144.3 -1276.12)"><rect class="cls-17" x="313.65" y="2140.03" width="97.69" height="93.65"/></clipPath><clipPath id="clip-path-65" transform="translate(1144.3 -1276.12)"><rect class="cls-17" x="385.83" y="2097.43" width="40.49" height="28.98"/></clipPath><clipPath id="clip-path-66" transform="translate(1144.3 -1276.12)"><rect class="cls-17" x="438.71" y="2139.61" width="68.3" height="87.21"/></clipPath><clipPath id="clip-path-67" transform="translate(1144.3 -1276.12)"><rect class="cls-17" x="510.16" y="2333.92" width="30.34" height="35.45"/></clipPath><clipPath id="clip-path-68" transform="translate(1144.3 -1276.12)"><rect class="cls-17" x="97.93" y="2341.41" width="89.05" height="117.31"/></clipPath><clipPath id="clip-path-69" transform="translate(1144.3 -1276.12)"><rect class="cls-17" x="53.45" y="2279.72" width="42.96" height="49.09"/></clipPath><clipPath id="clip-path-70" transform="translate(1144.3 -1276.12)"><rect class="cls-17" x="-30.83" y="2176.24" width="86.52" height="124.56"/></clipPath><clipPath id="clip-path-71" transform="translate(1144.3 -1276.12)"><rect class="cls-17" x="23.04" y="2379.8" width="39.68" height="65.01"/></clipPath><clipPath id="clip-path-72" transform="translate(1144.3 -1276.12)"><rect class="cls-17" x="17.6" y="2077.92" width="309.25" height="306.36"/></clipPath><clipPath id="clip-path-73" transform="translate(1144.3 -1276.12)"><path class="cls-17" d="M311.93,2103.71c-36.54-47-128.71-28-205.88,42.35S-4,2311.52,32.51,2358.48s128.72,28,205.88-42.34,110.09-165.46,73.54-212.43"/></clipPath><mask id="mask-13" x="993.95" y="608.33" width="645.15" height="693.3" maskUnits="userSpaceOnUse"><g transform="translate(1144.3 -1276.12)"><polygon class="cls-5" points="246.93 1884.45 494.8 2305 97.52 2577.75 -150.35 2157.2 246.93 1884.45"/></g></mask><linearGradient id="Dégradé_sans_nom_30-4" x1="6.05" y1="1071.26" x2="8.18" y2="1071.26" gradientTransform="matrix(59.1, 100.27, 91.87, -63.07, -97530.45, 67796.35)" xlink:href="#Dégradé_sans_nom_30"/><clipPath id="clip-path-74" transform="translate(1144.3 -1276.12)"><rect class="cls-17" x="92.72" y="2061.94" width="476.95" height="572.48"/></clipPath><clipPath id="clip-path-75" transform="translate(1144.3 -1276.12)"><path class="cls-17" d="M-247.93,1455.77c0,4.76,19.52,8.87,47.82,10.83,11.22.77,23.83,1.2,37.15,1.2,14.63,0,28.4-.52,40.42-1.44,26.53-2,44.54-6,44.54-10.59s-17.12-8.35-42.54-10.43A42.67,42.67,0,0,1-120,1451c10.86,1.22,17.58,2.89,17.58,4.74s-7.07,3.61-18.42,4.83a415.3,415.3,0,0,1-42.12,1.89c-14.79,0-28.34-.58-38.85-1.56-13.25-1.24-21.69-3.09-21.69-5.16s8.05-3.84,20.78-5.07a41.32,41.32,0,0,1,.56-5.61c-27.19,2-45.77,6-45.77,10.68"/></clipPath><linearGradient id="Dégradé_sans_nom_33-3" x1="-7.87" y1="1069.85" x2="-5.75" y2="1069.85" gradientTransform="matrix(80, 0, 0, -80, 1526.3, 85768.7)" xlink:href="#Dégradé_sans_nom_33"/><clipPath id="clip-path-77" transform="translate(1144.3 -1276.12)"><path class="cls-17" d="M-302.57,1823.93c23.45-6.9,53.8-9.66,76.86,5.91-13.6-.59-53.51-10.64-133.82,37.64h0c80.31,48.28,120.22,38.23,133.82,37.64-23.06,15.57-53.41,12.81-76.86,5.91,95.77,62.28,143.67-6.81,190.68-13.48v-60.15c-32.62-4.63-65.66-39.3-114.82-39.3-21.7,0-46.54,6.75-75.86,25.82"/></clipPath><linearGradient id="Dégradé_sans_nom_33-4" x1="-5.86" y1="1071.1" x2="-3.73" y2="1071.1" gradientTransform="matrix(117.65, 0, 0, -117.65, 1473.76, 126629.37)" xlink:href="#Dégradé_sans_nom_33"/><clipPath id="clip-path-78" transform="translate(1144.3 -1276.12)"><path class="cls-17" d="M-266.51,1865.91c69.77,48.49,154.62,31.65,154.62,31.65v-60.15a255.87,255.87,0,0,0-37.58-2.81c-72.09,0-117,31.31-117,31.31"/></clipPath><linearGradient id="Dégradé_sans_nom_34" x1="-8.71" y1="1065.89" x2="-6.59" y2="1065.89" gradientTransform="matrix(73.46, 0, 0, -73.46, 1517.55, 78897.04)" gradientUnits="userSpaceOnUse"><stop offset="0" stop-color="#fae551"/><stop offset="1" stop-color="#ef9221"/></linearGradient><clipPath id="clip-path-79" transform="translate(1144.3 -1276.12)"><path class="cls-17" d="M-224.33,1866.45c50.74,32,112.44,20.87,112.44,20.87v-39.66a203.63,203.63,0,0,0-27.34-1.85c-52.41,0-85.1,20.64-85.1,20.64"/></clipPath><linearGradient id="Dégradé_sans_nom_35" x1="-11.56" y1="1060.65" x2="-9.43" y2="1060.65" gradientTransform="matrix(53.42, 0, 0, -53.42, 1537.41, 57255.67)" gradientUnits="userSpaceOnUse"><stop offset="0" stop-color="#f8ea8c"/><stop offset="1" stop-color="#ef9221"/></linearGradient><clipPath id="clip-path-81" transform="translate(1144.3 -1276.12)"><rect class="cls-17" x="-136.39" y="1865.2" width="324.21" height="70.96"/></clipPath><clipPath id="clip-path-82" transform="translate(1144.3 -1276.12)"><rect class="cls-17" x="-124.86" y="1865.08" width="312.88" height="70.96"/></clipPath><clipPath id="clip-path-84" transform="translate(1144.3 -1276.12)"><path class="cls-17" d="M19.48,1850.2a17.26,17.26,0,1,0,.11,0h-.11"/></clipPath><mask id="mask-14" x="1146.39" y="573.84" width="35" height="34.93" maskUnits="userSpaceOnUse"><g transform="translate(1144.3 -1276.12)"><rect class="cls-6" x="2.21" y="1850.08" width="34.76" height="34.7" transform="translate(-12.67 0.18) rotate(-0.39)"/></g></mask><linearGradient id="Dégradé_sans_nom_40" x1="18.52" y1="1119.83" x2="20.65" y2="1119.83" gradientTransform="matrix(-25.76, 0, 0, 25.76, 531.11, -26974.39)" gradientUnits="userSpaceOnUse"><stop offset="0" stop-color="#fff"/><stop offset="0.74" stop-color="#fff"/><stop offset="1" stop-color="#fff"/></linearGradient><clipPath id="clip-path-86" transform="translate(1144.3 -1276.12)"><path class="cls-17" d="M79.11,1859.13a9.62,9.62,0,1,0,.06,0h-.06"/></clipPath><mask id="mask-15" x="1213.73" y="582.88" width="19.49" height="19.46" maskUnits="userSpaceOnUse"><g transform="translate(1144.3 -1276.12)"><rect class="cls-7" x="69.5" y="1859.06" width="19.36" height="19.33" transform="translate(-12.68 0.58) rotate(-0.39)"/></g></mask><linearGradient id="Dégradé_sans_nom_40-2" x1="31.62" y1="1151.57" x2="33.75" y2="1151.57" gradientTransform="matrix(-14.34, 0, 0, 14.34, 552, -14650.49)" xlink:href="#Dégradé_sans_nom_40"/><clipPath id="clip-path-88" transform="translate(1144.3 -1276.12)"><path class="cls-17" d="M-41.43,1856.2a9.58,9.58,0,0,0-9.52,9.64,9.6,9.6,0,0,0,9.65,9.52,9.58,9.58,0,0,0,9.51-9.65,9.56,9.56,0,0,0-9.57-9.51h-.07"/></clipPath><mask id="mask-16" x="1093.19" y="579.95" width="19.49" height="19.46" maskUnits="userSpaceOnUse"><g transform="translate(1144.3 -1276.12)"><rect class="cls-8" x="-51.05" y="1856.13" width="19.36" height="19.33" transform="translate(-12.66 -0.24) rotate(-0.39)"/></g></mask><linearGradient id="Dégradé_sans_nom_40-3" x1="36.07" y1="1151.43" x2="38.2" y2="1151.43" gradientTransform="matrix(-14.34, 0, 0, 14.34, 495.22, -14651.44)" xlink:href="#Dégradé_sans_nom_40"/><clipPath id="clip-path-90" transform="translate(1144.3 -1276.12)"><rect class="cls-17" x="-142.83" y="1777.33" width="118.06" height="36.71"/></clipPath><clipPath id="clip-path-91" transform="translate(1144.3 -1276.12)"><rect class="cls-17" x="-146.18" y="1918.78" width="123.28" height="38.45"/></clipPath></defs><g class="cls-18"><g id="Calque_1" data-name="Calque 1"><g class="cls-19"><g class="cls-19"><g class="cls-19"><rect class="cls-20" x="84.96" y="42.64" width="1593.09" height="1062.06"/></g><g class="cls-19"><g class="cls-21"><g class="cls-22"><path class="cls-23" d="M665.44,1827.31c-.76-1.67-1.54-3.41-2.3-5.18-58.35-3.09-117-22.38-169.65-48.8-82.42-41.32-155.42-99.18-235.74-144.46S84.89,1550.54-6,1565.84c-71.22,12-133.89,52.12-197.91,85.54s-136.5,61.35-207.11,46.18c-73.41-15.77-129.62-75.16-170.24-138.31s-71-133.24-119.12-190.84-121.21-102.47-195.3-90.28l-248.59,2.4V2495.3h480.73c3-65.33,6.47-132.68,34.68-191.68s87.86-108,153.06-103.06c55.86,4.26,111.07,46.11,163.12,25.39,71.71-28.56,61.78-143,124.23-188.37,35.49-25.78,86.12-21.08,124.77-.32s68.1,54.8,97.1,87.72,59.55,66.29,99.25,84.94c70.46,33.1,154.75,12.95,224.67-21.27,145.26-71.11,259.28-202.83,310.66-356-.86-1.77-1.71-3.55-2.53-5.34" transform="translate(1144.3 -1276.12)"/></g></g><g class="cls-24"><g class="cls-25"><path class="cls-23" d="M542.4,1293.49H-638c58.6,97,163.79,166.52,277.23,175.94,91.14,7.57,181-19.94,269.83-41.65s184-37.56,270.37-7.66c64.22,22.23,117.35,67.64,168.51,112.36s103.62,90.68,167.29,114.43a232.31,232.31,0,0,0,27.13,8.24Z" transform="translate(1144.3 -1276.12)"/></g></g><g class="cls-24"><g class="cls-26"><path class="cls-23" d="M613.71,1991.35c-39.57,71.06-79.56,142.74-133.36,203.74s-123.23,111.32-202.88,127.8c-153,31.68-303.6-64.46-459.77-70.42-164.29-6.28-327.09,99.15-388.55,251.65H610.37Z" transform="translate(1144.3 -1276.12)"/></g></g><path class="cls-27" d="M-234.83,1379.65a3.53,3.53,0,0,1-3.54,3.54,3.54,3.54,0,0,1-3.54-3.54,3.55,3.55,0,0,1,3.54-3.54,3.54,3.54,0,0,1,3.54,3.54" transform="translate(1144.3 -1276.12)"/><path class="cls-27" d="M-787.8,1383.55a3.55,3.55,0,0,1-3.55,3.54,3.54,3.54,0,0,1-3.53-3.54,3.53,3.53,0,0,1,3.53-3.54,3.54,3.54,0,0,1,3.55,3.54" transform="translate(1144.3 -1276.12)"/><path class="cls-27" d="M-166.15,1563a3.54,3.54,0,0,1-3.54,3.54,3.55,3.55,0,0,1-3.54-3.54,3.54,3.54,0,0,1,3.54-3.54,3.53,3.53,0,0,1,3.54,3.54" transform="translate(1144.3 -1276.12)"/><path class="cls-27" d="M-321.56,1513.47a3.54,3.54,0,0,1-3.54,3.54,3.53,3.53,0,0,1-3.54-3.54,3.54,3.54,0,0,1,3.54-3.54,3.55,3.55,0,0,1,3.54,3.54" transform="translate(1144.3 -1276.12)"/><path class="cls-27" d="M-175,1718.81a3.54,3.54,0,0,1-3.54,3.54,3.55,3.55,0,0,1-3.54-3.54,3.55,3.55,0,0,1,3.54-3.55,3.54,3.54,0,0,1,3.54,3.55" transform="translate(1144.3 -1276.12)"/><path class="cls-27" d="M169.11,1366.91a3.54,3.54,0,1,1-3.54-3.54,3.55,3.55,0,0,1,3.54,3.54" transform="translate(1144.3 -1276.12)"/><path class="cls-27" d="M-335.19,1435.59a3.55,3.55,0,0,1-3.54,3.54,3.54,3.54,0,0,1-3.54-3.54,3.54,3.54,0,0,1,3.54-3.54,3.55,3.55,0,0,1,3.54,3.54" transform="translate(1144.3 -1276.12)"/><path class="cls-27" d="M-296.43,1656.5A3.54,3.54,0,0,1-300,1660a3.55,3.55,0,0,1-3.54-3.54A3.54,3.54,0,0,1-300,1653a3.53,3.53,0,0,1,3.54,3.54" transform="translate(1144.3 -1276.12)"/><path class="cls-27" d="M-516.27,2245.59a3.55,3.55,0,0,1-3.54,3.54,3.54,3.54,0,0,1-3.54-3.54,3.53,3.53,0,0,1,3.54-3.54,3.54,3.54,0,0,1,3.54,3.54" transform="translate(1144.3 -1276.12)"/><path class="cls-27" d="M75.65,2002a3.54,3.54,0,1,1-3.54-3.54,3.54,3.54,0,0,1,3.54,3.54" transform="translate(1144.3 -1276.12)"/><path class="cls-27" d="M278.15,1927a3.54,3.54,0,1,1-3.54-3.54,3.55,3.55,0,0,1,3.54,3.54" transform="translate(1144.3 -1276.12)"/><path class="cls-27" d="M107.51,1740.05a3.54,3.54,0,1,1-3.54-3.54,3.54,3.54,0,0,1,3.54,3.54" transform="translate(1144.3 -1276.12)"/><path class="cls-27" d="M167.69,1502.15a3.54,3.54,0,1,1-3.54-3.55,3.54,3.54,0,0,1,3.54,3.55" transform="translate(1144.3 -1276.12)"/><path class="cls-27" d="M-204.74,1989.28a3.54,3.54,0,0,1-3.53,3.54,3.55,3.55,0,0,1-3.55-3.54,3.54,3.54,0,0,1,3.55-3.54,3.53,3.53,0,0,1,3.53,3.54" transform="translate(1144.3 -1276.12)"/><path class="cls-27" d="M-102.78,2234.26a3.54,3.54,0,0,1-3.54,3.54,3.55,3.55,0,0,1-3.54-3.54,3.54,3.54,0,0,1,3.54-3.54,3.53,3.53,0,0,1,3.54,3.54" transform="translate(1144.3 -1276.12)"/><path class="cls-27" d="M-228.81,2312.85a3.53,3.53,0,0,1-3.54,3.54,3.54,3.54,0,0,1-3.54-3.54,3.54,3.54,0,0,1,3.54-3.54,3.53,3.53,0,0,1,3.54,3.54" transform="translate(1144.3 -1276.12)"/><path class="cls-27" d="M-598.4,2142.92a3.54,3.54,0,0,1-3.55,3.54,3.53,3.53,0,0,1-3.53-3.54,3.53,3.53,0,0,1,3.53-3.54,3.54,3.54,0,0,1,3.55,3.54" transform="translate(1144.3 -1276.12)"/><path class="cls-23" d="M-628.32,1400.54a5.67,5.67,0,0,1-5.66,5.67,5.67,5.67,0,0,1-5.67-5.67,5.66,5.66,0,0,1,5.67-5.66,5.66,5.66,0,0,1,5.66,5.66" transform="translate(1144.3 -1276.12)"/><path class="cls-23" d="M-410.77,1589.94a5.67,5.67,0,0,1-5.67,5.67,5.66,5.66,0,0,1-5.66-5.67,5.65,5.65,0,0,1,5.66-5.66,5.66,5.66,0,0,1,5.67,5.66" transform="translate(1144.3 -1276.12)"/><path class="cls-23" d="M-108.44,2107.52a5.66,5.66,0,0,1-5.67,5.66,5.66,5.66,0,0,1-5.66-5.66,5.67,5.67,0,0,1,5.66-5.67,5.67,5.67,0,0,1,5.67,5.67" transform="translate(1144.3 -1276.12)"/><path class="cls-23" d="M251.24,1769.08a5.67,5.67,0,1,1-5.66-5.67,5.66,5.66,0,0,1,5.66,5.67" transform="translate(1144.3 -1276.12)"/><path class="cls-23" d="M-627.43,2249.83a5.67,5.67,0,0,1-5.67,5.67,5.66,5.66,0,0,1-5.66-5.67,5.65,5.65,0,0,1,5.66-5.66,5.66,5.66,0,0,1,5.67,5.66" transform="translate(1144.3 -1276.12)"/><path class="cls-23" d="M478.52,1983.61a5.66,5.66,0,1,1-5.66-5.66,5.66,5.66,0,0,1,5.66,5.66" transform="translate(1144.3 -1276.12)"/><path class="cls-23" d="M-886.58,2339.05a5.65,5.65,0,0,1-5.66,5.66,5.65,5.65,0,0,1-5.66-5.66,5.66,5.66,0,0,1,5.66-5.67,5.66,5.66,0,0,1,5.66,5.67" transform="translate(1144.3 -1276.12)"/><path class="cls-23" d="M-620.35,1601.27a5.67,5.67,0,0,1-5.67,5.67,5.66,5.66,0,0,1-5.66-5.67,5.65,5.65,0,0,1,5.66-5.66,5.66,5.66,0,0,1,5.67,5.66" transform="translate(1144.3 -1276.12)"/><path class="cls-23" d="M8.39,1494.71a5.67,5.67,0,1,1-5.67-5.66,5.67,5.67,0,0,1,5.67,5.66" transform="translate(1144.3 -1276.12)"/><path class="cls-23" d="M487,1475.24a5.67,5.67,0,1,1-5.67-5.67,5.66,5.66,0,0,1,5.67,5.67" transform="translate(1144.3 -1276.12)"/></g><g class="cls-28"><g class="cls-29"><rect class="cls-30" x="486.12" y="1017.58" width="250.96" height="22.65"/></g></g><g class="cls-31"><g class="cls-32"><rect class="cls-33" x="478.33" y="247.23" width="250.96" height="22.65"/></g></g><g class="cls-34"><g class="cls-35"><rect class="cls-36" x="1469.59" y="104.21" width="208.47" height="22.65"/></g></g><g class="cls-37"><g class="cls-38"><rect class="cls-39" x="1482.33" y="587.8" width="195.72" height="22.65"/></g></g><g class="cls-40"><g class="cls-41"><rect class="cls-42" x="1068.13" y="377.16" width="250.96" height="22.65"/></g></g><g class="cls-19"><g class="cls-43"><g class="cls-44"><path class="cls-45" d="M-452.21,1389c-19.45,11.73-40,13.5-45.71,4s5.36-26.87,24.8-38.6,39.95-13.5,45.71-4-5.36,26.87-24.8,38.6m-20-33.18c-17.8,10.73-28,26.58-22.71,35.33s24.05,7.12,41.84-3.61,28-26.59,22.71-35.34-24-7.12-41.84,3.62" transform="translate(1144.3 -1276.12)"/><path class="cls-45" d="M-446,1399.25c-30.91,18.65-63.51,21.47-72.68,6.28s8.53-42.72,39.45-61.37,63.52-21.47,72.68-6.28-8.53,42.72-39.45,61.37m-31.83-52.76c-28.3,17.07-44.5,42.27-36.11,56.18s38.24,11.33,66.54-5.74,44.5-42.28,36.11-56.19-38.24-11.33-66.54,5.75" transform="translate(1144.3 -1276.12)"/><path class="cls-45" d="M-439.88,1409.48c-42.39,25.57-87.09,29.43-99.65,8.6s11.69-58.57,54.08-84.14,87.09-29.43,99.65-8.61-11.69,58.57-54.08,84.15m-43.64-72.35c-38.81,23.41-61,58-49.52,77s52.43,15.53,91.24-7.88,61-58,49.51-77-52.43-15.53-91.23,7.88" transform="translate(1144.3 -1276.12)"/><path class="cls-45" d="M-433.71,1419.7c-53.86,32.49-110.66,37.4-126.63,10.93s14.86-74.42,68.72-106.91,110.67-37.4,126.63-10.94-14.86,74.42-68.72,106.92m-55.46-91.93c-49.31,29.75-77.53,73.66-62.91,97.88s66.62,19.74,115.92-10,77.53-73.65,62.92-97.88-66.62-19.74-115.93,10" transform="translate(1144.3 -1276.12)"/><path class="cls-45" d="M-427.55,1429.92c-65.32,39.41-134.23,45.36-153.59,13.27s18-90.28,83.36-129.7,134.23-45.36,153.6-13.26-18,90.27-83.37,129.69m-67.27-111.51c-59.81,36.08-94,89.35-76.31,118.73s80.81,23.94,140.62-12.14,94-89.35,76.31-118.73-80.81-23.94-140.62,12.14" transform="translate(1144.3 -1276.12)"/></g></g><g class="cls-43"><g class="cls-46"><path class="cls-45" d="M475,1725.65c-19.44,11.73-39.94,13.5-45.71,3.95s5.37-26.86,24.81-38.59,39.95-13.5,45.71-4-5.36,26.87-24.81,38.59m-20-33.18c-17.79,10.74-28,26.59-22.71,35.33s24,7.13,41.85-3.61,28-26.59,22.71-35.34-24-7.12-41.85,3.62" transform="translate(1144.3 -1276.12)"/><path class="cls-45" d="M481.12,1735.88c-30.91,18.65-63.52,21.46-72.68,6.27s8.53-42.71,39.44-61.37,63.52-21.46,72.69-6.27-8.54,42.72-39.45,61.37m-31.83-52.77c-28.3,17.08-44.5,42.28-36.11,56.18s38.24,11.33,66.54-5.74,44.5-42.28,36.11-56.19-38.24-11.32-66.54,5.75" transform="translate(1144.3 -1276.12)"/><path class="cls-45" d="M487.29,1746.1c-42.39,25.57-87.09,29.43-99.66,8.6s11.7-58.57,54.09-84.14,87.09-29.43,99.65-8.6-11.7,58.57-54.08,84.14m-43.65-72.35c-38.8,23.41-61,58-49.51,77s52.43,15.53,91.23-7.88,61-58,49.52-77-52.43-15.53-91.24,7.88" transform="translate(1144.3 -1276.12)"/><path class="cls-45" d="M493.45,1756.32c-53.85,32.49-110.66,37.4-126.62,10.94s14.86-74.43,68.72-106.92,110.66-37.4,126.63-10.94-14.87,74.43-68.73,106.92M438,1664.39c-49.3,29.75-77.52,73.66-62.91,97.89s66.62,19.73,115.93-10,77.53-73.66,62.91-97.89-66.62-19.73-115.93,10" transform="translate(1144.3 -1276.12)"/><path class="cls-45" d="M499.62,1766.54c-65.33,39.42-134.23,45.37-153.6,13.27s18-90.28,83.36-129.69,134.24-45.37,153.6-13.27-18,90.28-83.36,129.69M432.35,1655c-59.81,36.08-94,89.34-76.31,118.73s80.81,23.94,140.61-12.15,94.05-89.34,76.32-118.73S492.16,1619,432.35,1655" transform="translate(1144.3 -1276.12)"/></g></g><g class="cls-43"><g class="cls-47"><g class="cls-48"><g class="cls-49"><rect class="cls-50" x="-234.64" y="1379.49" width="145.31" height="145.31" transform="translate(94.79 -984.69) rotate(-43.77)"/></g></g></g></g></g><g class="cls-51"><rect class="cls-52" x="-220.21" y="1393.53" width="117.23" height="117.23" transform="translate(94.9 -984.42) rotate(-43.77)"/></g><g class="cls-51"><g class="cls-53"><g class="cls-54"><path class="cls-27" d="M-146.94,1409.38a18.52,18.52,0,0,1-7.26,19.28c-4.62,3.2-10.74,4.25-14.47,8.46-2.73,3.08-3.68,7.32-4.43,11.37s-1.49,8.28-3.94,11.59-7.22,5.32-10.81,3.31c-3.08-1.73-4.17-5.64-4.25-9.16s.57-7.11-.24-10.54a29.71,29.71,0,0,0-3.23-7.16,17.81,17.81,0,0,1-2.56-7.37c-.27-5.31,2.22-9.3,6.66-12,3.74-2.31,9-5.21,13.15-6.4-.86,2.14-2.53,3.84-3,6.25s.48,5.25,2.71,6.25c1.77.79,3.83.25,5.59-.55A20.33,20.33,0,0,0-161.76,1409Z" transform="translate(1144.3 -1276.12)"/><path class="cls-27" d="M-142.07,1419.91c-1.7,3-2.35,6.42-3.22,9.74s-2.09,6.72-4.58,9c-2.75,2.53-6.59,3.29-9.84,5.08-3.46,1.89-6.71,6.32-7.25,15.53a8.72,8.72,0,0,0,12.11,8.71c15.43-6.87,35.53-23.17,28.11-47.27-2.2-7.15-10.82-8.64-15.33-.8" transform="translate(1144.3 -1276.12)"/><path class="cls-27" d="M-206.81,1440.54c2.73-1.06,4.58,0,5.87,2.66s1.25,5.68,1.3,8.61c.15,9.34,3.36,18.56,12.34,22.83a48.36,48.36,0,0,0,19.71,4.92c19.92.47,43.38-15.78,45.82-36.47.18-1.54.73-4.26.16-5.74,4.48,11.49,5.53,19.48.12,30.56a28.2,28.2,0,0,1-9.86,11.27c-29.46,19.24-54.46,8.31-60.67,3.72s-9.58-11.59-12.26-18.83a48.5,48.5,0,0,1-2.53-23.53" transform="translate(1144.3 -1276.12)"/></g></g></g><g class="cls-19"><g class="cls-55"><g class="cls-56"><g class="cls-57"><g class="cls-58"><polygon class="cls-59" points="983.25 117.22 1016.47 173.58 963.22 210.14 930 153.77 983.25 117.22"/></g></g></g></g><g class="cls-60"><g class="cls-61"><path class="cls-62" d="M-150,1412.34a41.43,41.43,0,0,1,20.89,36,41.46,41.46,0,0,1-41.46,41.46,41.48,41.48,0,0,1-11.6-1.66,41.26,41.26,0,0,0,20.56,5.47,41.46,41.46,0,0,0,41.46-41.46,41.47,41.47,0,0,0-29.85-39.8" transform="translate(1144.3 -1276.12)"/></g></g><g class="cls-43"><g class="cls-63"><g class="cls-64"><g class="cls-65"><rect class="cls-66" x="189.08" y="1442.48" width="227.11" height="227.11" transform="translate(132.66 -606.37) rotate(-45)"/></g></g></g></g></g><g class="cls-67"><rect class="cls-68" x="1384.96" y="217.93" width="123.97" height="123.97"/></g><g class="cls-19"><g class="cls-69"><g class="cls-70"><path class="cls-71" d="M263.76,1578.35c5.78-4.68,13.46-6.31,20.88-6.74s14.9.22,22.29-.59a25.42,25.42,0,0,0,10.48-3.08c3.14-1.91,5.67-5.09,6-8.75.6-5.91-4.73-11.16-10.55-12.36s-11.81.67-17.25,3.06-10.73,5.32-16.57,6.4c-8.21,1.52-16.45-.86-23.91-4.22-4.08-1.84-8.78-5.46-13.58-6.72a62.66,62.66,0,0,0-.93,10.68,61.64,61.64,0,0,0,9.69,33.26l.16,0c5.46-1.85,8.77-7.26,13.25-10.89" transform="translate(1144.3 -1276.12)"/></g></g><g class="cls-69"><g class="cls-72"><path class="cls-71" d="M355.13,1568.26a97.72,97.72,0,0,1-49.19,16.07c-2.57.12-5.23.14-7.58,1.21s-4.28,3.51-3.86,6c.67,4,5.9,5,9.92,4.73,19.84-1.2,38.39-9.77,56.26-18.51a61.85,61.85,0,0,0,3.73-16.82c-3.54,2.2-7,5.76-9.28,7.27" transform="translate(1144.3 -1276.12)"/></g></g><g class="cls-69"><g class="cls-73"><path class="cls-71" d="M274.41,1545.12c14.22-.14,27.76-5.71,40.88-11.2,1.41-.59,3-1.35,3.42-2.82.71-2.4-2.12-4.33-4.57-4.84-13.34-2.76-26.42,9.41-39.76,6.64-8.43-1.75-14.57-9-22.42-12.53a61.64,61.64,0,0,0-7.21,13.51,42.8,42.8,0,0,0,5,4.15,43.46,43.46,0,0,0,24.65,7.09" transform="translate(1144.3 -1276.12)"/></g></g><g class="cls-69"><g class="cls-74"><path class="cls-71" d="M330.36,1538.66a13.76,13.76,0,0,0-3.35,7.67c-.15,2.84,1.25,5.88,3.85,7,2.89,1.26,6.3-.08,8.79-2s4.51-4.48,7.2-6.13c3.23-2,7.11-2.49,10.88-2.83,1.74-.16,3.5-.31,5.24-.55a61.61,61.61,0,0,0-6.42-16.36c-3.93.81-7.41,1.87-9.2,2.43-6.5,2-12.73,5.46-17,10.77" transform="translate(1144.3 -1276.12)"/></g></g><g class="cls-69"><g class="cls-75"><path class="cls-71" d="M277.66,1519c8.69,1.8,17.67,1.3,26.53.79,10.57-.61,21.45-1.29,31-5.86,2.35-1.13,4.8-2.73,5.46-5.25a4.71,4.71,0,0,0,.14-1.48,61.67,61.67,0,0,0-9.78-6.28c-3.12.43-6.11,1.87-9,3.11a69.39,69.39,0,0,1-52.88-.11,62.22,62.22,0,0,0-8.8,6.86q.27.26.48.42a38,38,0,0,0,16.89,7.8" transform="translate(1144.3 -1276.12)"/></g></g><g class="cls-69"><g class="cls-76"><path class="cls-71" d="M279.51,1596.82c2.54-.78,5-3,4.72-5.64-.24-2.27-2.47-3.93-4.73-4.24a13.63,13.63,0,0,0-6.67,1.23c-6,2.29-11.15,5.77-16.72,8.79a61.47,61.47,0,0,0,6.3,6.2c2.8-2.2,5.69-4.29,9.23-5.11,2.59-.61,5.33-.45,7.87-1.23" transform="translate(1144.3 -1276.12)"/></g></g><g class="cls-69"><g class="cls-77"><path class="cls-71" d="M317,1604.12a3.51,3.51,0,0,0-2.69-2.84,9.55,9.55,0,0,0-4.12,0,113.29,113.29,0,0,0-33.38,11.08,61.63,61.63,0,0,0,14.71,4.63l21.19-8.48c2-.82,4.48-2.21,4.29-4.41" transform="translate(1144.3 -1276.12)"/></g></g><g class="cls-78"><g class="cls-79"><path class="cls-80" d="M302.64,1494.05c-1.4,0-2.78.06-4.15.15a62,62,0,0,1-13.57,121.23,62,62,0,1,0,17.72-121.38" transform="translate(1144.3 -1276.12)"/></g></g><g class="cls-55"><g class="cls-81"><g class="cls-82"><g class="cls-83"><polygon class="cls-84" points="1441.6 184.91 1493.96 273.75 1410.03 331.37 1357.67 242.53 1441.6 184.91"/></g></g></g></g><g class="cls-43"><g class="cls-85"><g class="cls-86"><g class="cls-87"><rect class="cls-88" x="-573.92" y="1912.51" width="421.7" height="421.7" transform="translate(-425.39 -937.29) rotate(-43.77)"/></g></g></g></g></g><g class="cls-89"><rect class="cls-90" x="-532.05" y="1953.25" width="340.22" height="340.22" transform="translate(-425.08 -936.51) rotate(-43.77)"/></g><g class="cls-89"><g class="cls-53"><g class="cls-91"><path class="cls-27" d="M-319.4,1999.26c5.18,20.57-3.61,43.92-21.06,56-13.43,9.27-31.19,12.33-42,24.54-7.93,8.95-10.67,21.24-12.86,33s-4.33,24-11.44,33.64-21,15.46-31.37,9.6c-8.92-5-12.11-16.35-12.33-26.58s1.66-20.64-.69-30.6c-1.75-7.41-5.74-14.06-9.37-20.75s-7-13.8-7.42-21.41c-.78-15.41,6.43-27,19.3-34.93,10.87-6.7,26.2-15.13,38.18-18.57-2.5,6.19-7.34,11.14-8.62,18.12s1.37,15.26,7.87,18.15c5.12,2.28,11.12.73,16.22-1.59a59,59,0,0,0,32.58-39.78Z" transform="translate(1144.3 -1276.12)"/><path class="cls-27" d="M-305.27,2029.82c-4.94,8.59-6.82,18.62-9.35,28.26s-6.05,19.52-13.3,26.17c-8,7.32-19.12,9.53-28.55,14.72-10,5.51-19.47,18.34-21,45.08-1.12,19.23,18,32.93,35.14,25.28,44.77-19.94,103.11-67.25,81.58-137.17-6.4-20.78-31.4-25.09-44.49-2.34" transform="translate(1144.3 -1276.12)"/><path class="cls-27" d="M-493.15,2089.71c7.93-3.09,13.27.06,17,7.69s3.63,16.5,3.77,25c.44,27.1,9.74,53.86,35.8,66.26,18,8.56,37.23,13.81,57.22,14.28,57.79,1.35,125.9-45.79,133-105.83.53-4.48,2.13-12.37.46-16.66,13,33.34,16.05,56.53.35,88.69a81.85,81.85,0,0,1-28.61,32.7c-85.5,55.82-158.06,24.11-176.06,10.78S-478,2179-485.83,2158a140.72,140.72,0,0,1-7.32-68.28" transform="translate(1144.3 -1276.12)"/></g></g></g><g class="cls-19"><g class="cls-55"><g class="cls-92"><g class="cls-93"><g class="cls-94"><polygon class="cls-95" points="783.93 676.59 880.34 840.16 725.82 946.25 629.41 782.68 783.93 676.59"/></g></g></g></g><g class="cls-60"><g class="cls-96"><path class="cls-62" d="M-328.26,2007.86a120.24,120.24,0,0,1,60.62,104.45,120.32,120.32,0,0,1-120.31,120.31,120,120,0,0,1-33.68-4.82,119.67,119.67,0,0,0,59.69,15.87,120.3,120.3,0,0,0,120.31-120.31,120.33,120.33,0,0,0-86.63-115.5" transform="translate(1144.3 -1276.12)"/></g></g><g class="cls-43"><g class="cls-97"><g class="cls-98"><g class="cls-99"><rect class="cls-100" x="1076.22" y="720.23" width="685.18" height="685.18"/></g></g></g></g></g><g class="cls-101"><rect class="cls-102" x="-62" y="1910.86" width="639.64" height="605.75" transform="translate(-182.66 -629.4) rotate(-38.68)"/></g><g class="cls-103"><g class="cls-104"><g class="cls-105"><path class="cls-106" d="M231.16,2068.34c-5.92,3.76-11.91,9.8-10.58,16.68s9.25,10.29,16.17,11.83a120.92,120.92,0,0,0,58.5-1.56c4.28-1.2,8.58-2.68,12.08-5.41s6.12-6.93,6-11.37c-.51-13.51-21.38-20.42-32-21.58a78.37,78.37,0,0,0-50.09,11.41" transform="translate(1144.3 -1276.12)"/></g></g><g class="cls-104"><g class="cls-107"><path class="cls-106" d="M228.3,2173.33c-3.57,2.62-6.85,5.85-8.6,9.91s-1.77,9.08.81,12.67c4.12,5.75,12.58,5.78,19.56,4.64a127.57,127.57,0,0,0,22.26-5.7c5.95-2.11,12.08-4.95,15.48-10.26,7.12-11.16-3-18.34-12.71-19.84a49.52,49.52,0,0,0-36.8,8.58" transform="translate(1144.3 -1276.12)"/></g></g><g class="cls-104"><g class="cls-108"><path class="cls-106" d="M244.33,2271.13c3.09,3.14,8,3.52,12.39,2.92,12.33-1.7,23.72-19.93,7.2-24.58-10.49-2.95-30.34,10.7-19.59,21.66" transform="translate(1144.3 -1276.12)"/></g></g><g class="cls-104"><g class="cls-109"><path class="cls-106" d="M286.55,2144.49c3.08,3.14,8,3.52,12.39,2.92,12.32-1.7,23.71-19.94,7.2-24.58-10.5-3-30.34,10.69-19.59,21.66" transform="translate(1144.3 -1276.12)"/></g></g><g class="cls-104"><g class="cls-110"><path class="cls-106" d="M384.45,2298.49c-1.93,6-1.12,13.63,4.15,17.07,3.35,2.19,7.69,2.17,11.61,1.39a27.27,27.27,0,0,0,14.51-7.62,19.22,19.22,0,0,0,5.41-15.18c-2.88-24.08-30.72-11.1-35.68,4.34" transform="translate(1144.3 -1276.12)"/></g></g><g class="cls-104"><g class="cls-111"><path class="cls-106" d="M298.77,2262.29c-8.76,10.06-11.28,24.08-11.86,37.41a168.87,168.87,0,0,0,3.68,43.24c2.55,11.8,7.66,24.75,18.93,29.08,8.49,3.25,18.41.41,25.55-5.22s12-13.67,16-21.8c8.08-16.09,14-34.12,11.34-51.93-4.07-27-39.79-58.2-63.68-30.78" transform="translate(1144.3 -1276.12)"/></g></g><g class="cls-104"><g class="cls-112"><path class="cls-106" d="M147.25,2246c-9.08,11.72-14.52,26.9-12,41.51s14.19,28,28.9,29.85c9,1.15,18.06-1.85,25.63-6.74a55.61,55.61,0,0,0,25-46.46c-.18-15.16-8.67-38.92-25.36-43.08-15.91-4-33.47,13.74-42.14,24.92" transform="translate(1144.3 -1276.12)"/></g></g><g class="cls-104"><g class="cls-113"><path class="cls-106" d="M116.77,2116.48a94.19,94.19,0,0,0-38.29,55.32c-2.4,10-2.33,22.27,5.88,28.41,8.38,6.26,20.27,2.62,29.74-1.81A258,258,0,0,0,173,2160.31c8.37-7.2,16.54-15.35,20.15-25.78,5.23-15.13-1.61-32.5-18.16-34-20.11-1.78-41.62,4.68-58.18,15.92" transform="translate(1144.3 -1276.12)"/></g></g><g class="cls-104"><g class="cls-114"><path class="cls-106" d="M383.69,2360.9c-7.78,5.43-12.66,14.06-16.69,22.65a215,215,0,0,0-18.09,60c-1.6,10.85-2.12,22.81,4.11,31.85,5,7.19,13.65,11.29,22.37,11.9s17.42-2,25.17-6a71.06,71.06,0,0,0,37.28-56.13c1.53-18.61-5-37.26-17-51.45-10.28-12.19-19.8-24.95-37.18-12.84" transform="translate(1144.3 -1276.12)"/></g></g><g class="cls-104"><g class="cls-115"><path class="cls-106" d="M202.75,2330.19c-2.3,9.78,2.67,20.38,10.74,26.36s18.67,7.81,28.67,6.77c17.3-1.79,36.43-17.12,28.37-36.4-6.35-15.2-30.25-19.19-44.49-16.51-10.39,2-20.76,9-23.29,19.78" transform="translate(1144.3 -1276.12)"/></g></g><g class="cls-104"><g class="cls-116"><path class="cls-106" d="M454.86,2367.29a5.7,5.7,0,0,0,2.78,4.89c6.48,3.35,20.22-9.76,13.88-16.31-7.37-7.62-16.94,3.85-16.66,11.42" transform="translate(1144.3 -1276.12)"/></g></g><g class="cls-104"><g class="cls-117"><path class="cls-106" d="M460.77,2271.06c-5,1.81-10.2,5.65-10.2,11s5,9,9.63,11.52c5.73,3.07,11.92,5.62,18.41,5.79s13.33-2.39,16.95-7.78c14.29-21.27-23.27-24.69-34.79-20.51" transform="translate(1144.3 -1276.12)"/></g></g><g class="cls-104"><g class="cls-118"><path class="cls-106" d="M321.87,2153.21c-11.18,14.36-10.49,35.84-.77,51.21s27,24.92,44.9,28.2c12.73,2.33,27.24,1.28,36.58-7.68,11.34-10.87,10.86-30,3.21-43.66-14.39-25.76-58.57-60.62-83.92-28.07" transform="translate(1144.3 -1276.12)"/></g></g><g class="cls-104"><g class="cls-119"><path class="cls-106" d="M398.91,2097.53c-6.24.63-12.58,5.14-13.05,11.4-.54,7.1,6.26,12.58,12.91,15.15,5.16,2,10.89,3.09,16.26,1.72s10.24-5.59,11.14-11.05c2.08-12.58-18.16-18.15-27.26-17.22" transform="translate(1144.3 -1276.12)"/></g></g><g class="cls-104"><g class="cls-120"><path class="cls-106" d="M442.05,2147.88c-5.51,7.41-3.28,17.89.07,26.5A137.06,137.06,0,0,0,466,2214.15c5.26,6.1,11.79,12.08,19.82,12.63,8.79.61,17.05-6,20.13-14.25,8.85-23.69-39.54-97.44-63.89-64.65" transform="translate(1144.3 -1276.12)"/></g></g><g class="cls-104"><g class="cls-121"><path class="cls-106" d="M510.53,2359.07c1.3,5.33,6,9.92,11.43,10.28,7,.47,12.76-5.53,16-11.74,4.66-8.85,3.59-24.06-9.61-23.68-10.81.31-20.22,15.38-17.85,25.14" transform="translate(1144.3 -1276.12)"/></g></g><g class="cls-104"><g class="cls-122"><path class="cls-106" d="M110.33,2437.14c9.48,12.8,24.52,22.82,40.39,21.46,19.33-1.67,34.14-20.44,36-39.76s-6.77-38.33-18.64-53.68c-6.36-8.21-14-15.87-23.51-19.92-54.32-23.06-54.51,64.49-34.24,91.9" transform="translate(1144.3 -1276.12)"/></g></g><g class="cls-104"><g class="cls-123"><path class="cls-106" d="M65.36,2328.13c7.51,2.33,15.6-1.7,21.36-7.05,14.6-13.55,14.38-48-12.3-40.25-17.2,5-32.36,40.09-9.06,47.3" transform="translate(1144.3 -1276.12)"/></g></g><g class="cls-104"><g class="cls-124"><path class="cls-106" d="M-30.38,2250.63c-.95,10.34-.64,21.08,3.43,30.64S-14.47,2299-4.2,2300.53c14.56,2.17,27.65-8.89,36.93-20.32,10.07-12.39,18.56-26.53,21.72-42.18s.41-33-9.85-45.26c-41.4-49.37-71.91,24.38-75,57.86" transform="translate(1144.3 -1276.12)"/></g></g><g class="cls-104"><g class="cls-125"><path class="cls-106" d="M37.29,2437.57c4.82,5.12,12.44,9.41,18.63,6.06,5.4-2.92,6.69-10,6.78-16.16a97.56,97.56,0,0,0-3.35-26.88c-3.86-14.32-19.85-30.44-31.75-13.57-10.43,14.77-1.16,39,9.69,50.55" transform="translate(1144.3 -1276.12)"/></g></g><g class="cls-126"><g class="cls-127"><g class="cls-128"><g class="cls-129"><polygon class="cls-130" points="1391.23 608.33 1639.1 1028.88 1241.82 1301.63 993.95 881.08 1391.23 608.33"/></g></g></g></g><g class="cls-131"><g class="cls-132"><path class="cls-80" d="M369.54,2061.94a293.31,293.31,0,0,1,110.82,229.89c0,162.3-131.58,293.88-293.88,293.88a293.65,293.65,0,0,1-93.76-15.28,292.61,292.61,0,0,0,183.06,64c162.31,0,293.88-131.58,293.88-293.88,0-129.52-83.79-239.47-200.12-278.6" transform="translate(1144.3 -1276.12)"/></g></g></g><g class="cls-133"><rect class="cls-134" x="896.38" y="168.97" width="169.93" height="22.71"/></g><g class="cls-19"><path class="cls-23" d="M-223.14,1852.62c-34.85,2.13-99.07-6.37-113.86-74.61-7.18-33.12-9.47-68.76-27.35-97.73a106.21,106.21,0,0,0-33.77-33.76c-84.62-53.75-175.5,44-280.29-12.68-156-84.3-94.88-271.89-396.63-322.87v1204.1c84.62-53.74,28.35-160.35,113-214.09s140.88,52.88,225.49-.86,28.35-160.36,113-214.1,140.89,52.88,225.51-.86c30.45-19.35,45.39-50.67,52.81-87.28,6.73-33.17,8.86-55.71,31.17-80.82,36.46-41.07,91.35-37.67,92.94-39.3,2.3-2.36,3-25.44-1.94-25.14" transform="translate(1144.3 -1276.12)"/></g><text class="cls-135" transform="translate(160.73 543.07)">GRADIENT S<tspan class="cls-136" x="228.62" y="0">P</tspan><tspan class="cls-137" x="250.65" y="0">A</tspan><tspan class="cls-138" x="277.89" y="0">CE</tspan></text><text class="cls-139" transform="translate(160.73 593.54)">W<tspan class="cls-140" x="35.35" y="0">ITH A ROCKET</tspan></text><text class="cls-141" transform="translate(166.09 644.73)"><tspan class="cls-142">L</tspan><tspan class="cls-143" x="7.03" y="0">o</tspan><tspan class="cls-144" x="15.34" y="0">r</tspan><tspan x="20.1" y="0">em</tspan><tspan class="cls-145" x="40.29" y="0"> </tspan><tspan x="43.06" y="0">ipsum</tspan><tspan class="cls-145" x="82.14" y="0"> </tspan><tspan x="84.91" y="0">dolor</tspan><tspan class="cls-146" x="118.56" y="0"> </tspan><tspan class="cls-143" x="121.34" y="0">sit</tspan><tspan class="cls-146" x="135.87" y="0"> </tspan><tspan class="cls-147" x="138.66" y="0">a</tspan><tspan class="cls-148" x="145.95" y="0">m</tspan><tspan x="158.59" y="0">e</tspan><tspan class="cls-149" x="166.17" y="0">t</tspan><tspan x="171.31" y="0">,</tspan><tspan class="cls-146" x="174.44" y="0"> </tspan><tspan class="cls-150" x="177.22" y="0">c</tspan><tspan class="cls-143" x="183.88" y="0">onse</tspan><tspan class="cls-151" x="214.14" y="0">c</tspan><tspan class="cls-152" x="220.99" y="0">t</tspan><tspan x="225.72" y="0">etuer</tspan><tspan class="cls-146" x="259.16" y="0"> </tspan><tspan class="cls-148" x="261.95" y="0">a</tspan><tspan class="cls-147" x="269.27" y="0">dipisci</tspan><tspan class="cls-148" x="309.78" y="0">n</tspan><tspan class="cls-147" x="318.21" y="0">g</tspan><tspan class="cls-146" x="326.66" y="0"> </tspan><tspan class="cls-143" x="329.44" y="0">eli</tspan><tspan class="cls-149" x="344.13" y="0">t</tspan><tspan x="349.27" y="0">, </tspan></text><text class="cls-141" transform="translate(166.09 667.42)">sed<tspan class="cls-153" x="22.1" y="0"> </tspan><tspan x="27.12" y="0">diam</tspan><tspan class="cls-153" x="59.09" y="0"> </tspan><tspan class="cls-154" x="64.11" y="0">n</tspan><tspan x="72.52" y="0">onum</tspan><tspan class="cls-155" x="110.16" y="0">m</tspan><tspan class="cls-143" x="122.64" y="0">y</tspan><tspan class="cls-153" x="129.76" y="0"> </tspan><tspan class="cls-147" x="134.78" y="0">nibh</tspan><tspan class="cls-153" x="163.72" y="0"> </tspan><tspan x="168.74" y="0">euis</tspan><tspan class="cls-148" x="194.18" y="0">m</tspan><tspan x="206.82" y="0">od</tspan><tspan class="cls-153" x="223.65" y="0"> </tspan><tspan class="cls-147" x="228.67" y="0">ti</tspan><tspan class="cls-156" x="237.22" y="0">n</tspan><tspan x="245.64" y="0">cidunt</tspan><tspan class="cls-157" x="286.22" y="0"> </tspan><tspan class="cls-143" x="291.26" y="0">ut</tspan><tspan class="cls-153" x="304.6" y="0"> </tspan><tspan x="309.62" y="0">l</tspan><tspan class="cls-148" x="313.19" y="0">a</tspan><tspan x="320.51" y="0">o</tspan><tspan class="cls-158" x="328.81" y="0">r</tspan><tspan x="333.57" y="0">eet </tspan></text><text class="cls-141" transform="translate(166.09 690.1)">dolo<tspan class="cls-144" x="28.71" y="0">r</tspan><tspan x="33.47" y="0">e m</tspan><tspan class="cls-154" x="56.87" y="0">a</tspan><tspan x="64.17" y="0">gna aliquam e</tspan><tspan class="cls-150" x="153.45" y="0">r</tspan><tspan x="158.27" y="0">at </tspan><tspan class="cls-159" x="173.77" y="0">v</tspan><tspan x="180.82" y="0">olut</tspan><tspan class="cls-160" x="206.03" y="0">p</tspan><tspan class="cls-147" x="214.61" y="0">a</tspan><tspan class="cls-161" x="221.9" y="0">t</tspan><tspan x="227.06" y="0">. </tspan></text><g class="cls-162"><rect class="cls-163" x="784.77" y="521.98" width="247.65" height="175.22"/></g><g class="cls-164"><rect class="cls-165" x="877.8" y="558.48" width="154.62" height="79.79"/></g><g class="cls-166"><rect class="cls-167" x="919.97" y="569.69" width="112.44" height="52.62"/></g><g class="cls-19"><path class="cls-23" d="M187.82,1865.86h0l-1.58,0,1.58-.08a281.27,281.27,0,0,0-295.53-46l-17.65,7.59a76.21,76.21,0,0,0-11,39.65,76.24,76.24,0,0,0,11.33,39.6l17.72,7.46a281.26,281.26,0,0,0,295.16-48.26" transform="translate(1144.3 -1276.12)"/><path class="cls-168" d="M-103.48,1818.09c-1.41.57-2.82,1.12-4.22,1.73l-17.66,7.59a76.21,76.21,0,0,0-11,39.65,76.24,76.24,0,0,0,11.33,39.6l17.72,7.46c1.4.59,2.82,1.13,4.24,1.7A97.49,97.49,0,0,1-116.52,1867a97.47,97.47,0,0,1,13-48.89" transform="translate(1144.3 -1276.12)"/><path class="cls-27" d="M129.54,1866.05a83.67,83.67,0,0,0,8,35.17,280.9,280.9,0,0,0,50.29-35.36l-1.58,0,1.58-.08a281.15,281.15,0,0,0-50.56-35,83.62,83.62,0,0,0-7.72,34.89Z" transform="translate(1144.3 -1276.12)"/><g class="cls-169"><g class="cls-170"><path class="cls-171" d="M187.82,1865.86l-1.58,0,1.58-.08c-.24-.21-.49-.41-.72-.62l-323.48,1.24c0,.21,0,.41,0,.62a76.24,76.24,0,0,0,11.33,39.6l17.72,7.46a281.26,281.26,0,0,0,295.16-48.26" transform="translate(1144.3 -1276.12)"/></g></g><g class="cls-169"><g class="cls-172"><g class="cls-169"><g class="cls-172"><path class="cls-173" d="M188,1865.73l-1.58,0,1.58-.08h0l-.72-.62a407.78,407.78,0,0,1-152.15,52.16,407.65,407.65,0,0,1-160-10.7l17.72,7.46A281.26,281.26,0,0,0,188,1865.73" transform="translate(1144.3 -1276.12)"/></g></g></g></g><path class="cls-174" d="M-7.46,1867.61a27.12,27.12,0,1,1,27.22,27,27.15,27.15,0,0,1-27.22-27" transform="translate(1144.3 -1276.12)"/><path class="cls-168" d="M43.56,1867.41a23.9,23.9,0,1,1-24-23.8,23.9,23.9,0,0,1,24,23.8m6.45,0a30.35,30.35,0,1,0-30.23,30.47A30.38,30.38,0,0,0,50,1867.38" transform="translate(1144.3 -1276.12)"/></g><g class="cls-175"><g class="cls-176"><rect class="cls-177" x="2.21" y="1850.08" width="34.76" height="34.7" transform="translate(1131.63 -1275.94) rotate(-0.39)"/></g></g><g class="cls-19"><path class="cls-174" d="M64.11,1868.82a15.11,15.11,0,1,1,15.16,15,15.13,15.13,0,0,1-15.16-15" transform="translate(1144.3 -1276.12)"/><path class="cls-168" d="M92.53,1868.72a13.31,13.31,0,1,1-13.36-13.26,13.32,13.32,0,0,1,13.36,13.26m3.59,0a16.91,16.91,0,1,0-16.84,17,16.93,16.93,0,0,0,16.84-17" transform="translate(1144.3 -1276.12)"/></g><g class="cls-178"><g class="cls-179"><rect class="cls-180" x="69.5" y="1859.06" width="19.36" height="19.33" transform="translate(1131.63 -1275.54) rotate(-0.39)"/></g></g><g class="cls-19"><path class="cls-174" d="M-56.44,1865.89a15.13,15.13,0,0,1,15-15.16,15.13,15.13,0,0,1,15.17,15,15.12,15.12,0,0,1-15.05,15.16,15.14,15.14,0,0,1-15.17-15" transform="translate(1144.3 -1276.12)"/><path class="cls-168" d="M-28,1865.78a13.3,13.3,0,0,1-13.26,13.36,13.3,13.3,0,0,1-13.36-13.25,13.3,13.3,0,0,1,13.26-13.36A13.3,13.3,0,0,1-28,1865.78m3.59,0a16.92,16.92,0,0,0-17-16.84,16.93,16.93,0,0,0-16.84,17,16.93,16.93,0,0,0,17,16.84,16.92,16.92,0,0,0,16.83-17" transform="translate(1144.3 -1276.12)"/></g><g class="cls-181"><g class="cls-182"><rect class="cls-183" x="-51.05" y="1856.13" width="19.36" height="19.33" transform="matrix(1, -0.01, 0.01, 1, 1131.64, -1276.36)"/></g></g><g class="cls-19"><path class="cls-27" d="M-97.22,1815.51a341.6,341.6,0,0,1,37.09-10.79,344.18,344.18,0,0,1,44.19-7.17l-25.7-13.72a95.83,95.83,0,0,0-67.12-8.74l-45.37,10.69Z" transform="translate(1144.3 -1276.12)"/><g class="cls-169"><g class="cls-184"><path class="cls-171" d="M-94.22,1814.05a291.6,291.6,0,0,1,31.69-9.22,293.21,293.21,0,0,1,37.75-6.12l-22-11.73a81.83,81.83,0,0,0-57.33-7.46l-38.76,9.13Z" transform="translate(1144.3 -1276.12)"/></g></g><path class="cls-27" d="M-99.67,1916.47a338.89,338.89,0,0,0,36.9,11.4,340.49,340.49,0,0,0,44.07,7.91l-25.93,13.29a95.77,95.77,0,0,1-67.25,7.62l-45.19-11.44Z" transform="translate(1144.3 -1276.12)"/><g class="cls-169"><g class="cls-185"><path class="cls-171" d="M-95,1918.78a303.29,303.29,0,0,0,32.88,10.15,303.19,303.19,0,0,0,39.26,7L-46,1947.82a85.39,85.39,0,0,1-59.93,6.79l-40.25-10.2Z" transform="translate(1144.3 -1276.12)"/></g></g></g><g class="cls-19"><path class="cls-186" d="M-241.33,2305a15.92,15.92,0,0,0-2.36,3.09l-1-.51a1.28,1.28,0,0,0-1.4-1,1.28,1.28,0,0,0-1.13,1.42,1.29,1.29,0,0,0,1.43,1.12,1,1,0,0,0,.39-.11l.95.5a15.4,15.4,0,0,0-1.14,3.7l1.58.28a14,14,0,0,1,3.81-7.37Z" transform="translate(1144.3 -1276.12)"/><path class="cls-186" d="M-229.68,2300.11c-.36,0-.72,0-1.08,0l-.15-1.33a1.53,1.53,0,0,0,.56-1.37,1.52,1.52,0,0,0-1.69-1.33,1.51,1.51,0,0,0-1.33,1.68,1.52,1.52,0,0,0,.86,1.2l.15,1.33a16.09,16.09,0,0,0-4.37,1.37l.69,1.45a14.64,14.64,0,0,1,6.36-1.43,15,15,0,0,1,3.14.34l.34-1.57a16.2,16.2,0,0,0-3.48-.38" transform="translate(1144.3 -1276.12)"/><path class="cls-186" d="M-215.65,2305.52a1.27,1.27,0,0,0,1.11-1.43A1.27,1.27,0,0,0-216,2303a1.28,1.28,0,0,0-1.13,1.29l-.88.77a16.75,16.75,0,0,0-3-2.42l-.86,1.37a14.3,14.3,0,0,1,5.45,6.21l1.46-.66a15.55,15.55,0,0,0-2-3.29l.86-.74a1.32,1.32,0,0,0,.4,0" transform="translate(1144.3 -1276.12)"/><path class="cls-186" d="M-230.84,2321.8c-.82,0-1.64.07-2.46.07a34.3,34.3,0,0,1-5.26-.38,18.25,18.25,0,0,1-2.7-.62,13.12,13.12,0,0,0,11.45,6.64,13,13,0,0,0,12.64-9.57,21.11,21.11,0,0,1-5.23,2.39,36,36,0,0,1-8.44,1.47" transform="translate(1144.3 -1276.12)"/><path class="cls-186" d="M-229.67,2303.33A12.79,12.79,0,0,0-242.59,2316a12.71,12.71,0,0,0,.29,2.68c1.43,1,5.75,1.89,11.36,1.55,6.12-.37,11.25-2,14.17-4.59q0-.61-.09-1.23a12.84,12.84,0,0,0-12.81-11m-4.59,13.84a3.93,3.93,0,0,1-3.93-3.93,3.94,3.94,0,0,1,3.93-3.93,3.94,3.94,0,0,1,3.93,3.93,3.94,3.94,0,0,1-3.93,3.93m10.06-1.93a2.89,2.89,0,0,1-2.89-2.89,2.9,2.9,0,0,1,2.89-2.89,2.9,2.9,0,0,1,2.89,2.89,2.89,2.89,0,0,1-2.89,2.89" transform="translate(1144.3 -1276.12)"/><path class="cls-186" d="M-195.68,2307.3a5.87,5.87,0,0,0-2.94-.5c-1.17.14-1.79.72-1.79,2.13v1.84h4.73v3.65h-4.73V2326h-4.1v-11.59h-2.85v-3.65h2.85v-1.88c0-3.57,1.9-5.92,5.45-5.92a8.3,8.3,0,0,1,3.38.66Z" transform="translate(1144.3 -1276.12)"/><path class="cls-186" d="M-185.69,2314.38a6.21,6.21,0,0,0-1.12-.1c-1.9,0-3.21,1.16-3.21,3.42V2326h-4.1v-15.24h4v1.67a4.81,4.81,0,0,1,4.29-2.08,3.75,3.75,0,0,1,2.32.72Z" transform="translate(1144.3 -1276.12)"/><path class="cls-186" d="M-169.41,2318.37a11.17,11.17,0,0,1-.08,1.38h-10.8a3.69,3.69,0,0,0,3.92,3.16,6.14,6.14,0,0,0,3.85-1.46l2.4,2.64a9.2,9.2,0,0,1-6.49,2.31c-4.67,0-7.9-3.18-7.9-8s3.14-8.07,7.7-8.07c4.38,0,7.39,3.26,7.4,8m-10.86-1.42h6.74c-.37-1.95-1.55-3-3.31-3a3.31,3.31,0,0,0-3.43,3" transform="translate(1144.3 -1276.12)"/><path class="cls-186" d="M-153.15,2318.37a11.17,11.17,0,0,1-.08,1.38H-164a3.68,3.68,0,0,0,3.92,3.16,6.16,6.16,0,0,0,3.85-1.46l2.4,2.64a9.23,9.23,0,0,1-6.49,2.31,7.54,7.54,0,0,1-7.91-8c0-4.8,3.15-8.07,7.7-8.07,4.39,0,7.39,3.26,7.41,8M-164,2317h6.74c-.38-1.95-1.56-3-3.32-3a3.31,3.31,0,0,0-3.42,3" transform="translate(1144.3 -1276.12)"/><path class="cls-186" d="M-135.42,2318.38c0,4.58-3.18,8-7.38,8a5.57,5.57,0,0,1-4.48-2v7.88h-4.08v-21.53h4v1.69a5.48,5.48,0,0,1,4.54-2.09c4.21,0,7.39,3.44,7.39,8m-12.06,0a3.91,3.91,0,0,0,3.91,4.2,3.91,3.91,0,0,0,3.93-4.2,3.91,3.91,0,0,0-3.93-4.2,3.92,3.92,0,0,0-3.91,4.2" transform="translate(1144.3 -1276.12)"/><path class="cls-186" d="M-128.83,2305.79a2.58,2.58,0,0,1-2.63,2.61,2.57,2.57,0,0,1-2.61-2.61,2.59,2.59,0,0,1,2.61-2.64,2.6,2.6,0,0,1,2.63,2.64m-.55,20.22h-4.1v-15.24h4.1Z" transform="translate(1144.3 -1276.12)"/><polygon class="cls-186" points="1021.77 1040.08 1027.51 1034.65 1032.54 1034.65 1025.15 1041.82 1032.59 1049.89 1027.54 1049.89 1021.77 1043.72 1021.77 1049.89 1017.66 1049.89 1017.66 1027.25 1021.77 1027.25 1021.77 1040.08"/><path class="cls-186" d="M-402.11,2325.87v-2.24a6.34,6.34,0,0,1-5.07,2.61c-3.92,0-6.69-3-6.69-7.87s2.74-7.9,6.69-7.9a6.27,6.27,0,0,1,5.07,2.64v-8h2.34v20.75Zm0-4.08V2315a5.63,5.63,0,0,0-4.51-2.43c-3,0-4.82,2.49-4.82,5.82s1.8,5.79,4.82,5.79a5.58,5.58,0,0,0,4.51-2.37" transform="translate(1144.3 -1276.12)"/><path class="cls-186" d="M-396.76,2318.34c0-4.36,3.11-7.87,7.41-7.87,4.54,0,7.22,3.55,7.22,8.06v.59H-394.3a5.29,5.29,0,0,0,5.41,5.19,6.55,6.55,0,0,0,4.64-1.9l1.12,1.53a8.17,8.17,0,0,1-6,2.3c-4.45,0-7.66-3.2-7.66-7.9m7.38-5.94a5,5,0,0,0-4.92,5h9.86a4.86,4.86,0,0,0-4.94-5" transform="translate(1144.3 -1276.12)"/><path class="cls-186" d="M-380.46,2323.88l1.22-1.68a6.79,6.79,0,0,0,4.94,2.14c2.31,0,3.55-1.09,3.55-2.58,0-3.64-9.3-1.4-9.3-7,0-2.33,2-4.32,5.6-4.32a7.58,7.58,0,0,1,5.57,2.18l-1.09,1.62a5.81,5.81,0,0,0-4.48-1.9c-2.05,0-3.33,1-3.33,2.36,0,3.3,9.3,1.12,9.3,7,0,2.52-2,4.54-5.91,4.54a8,8,0,0,1-6.07-2.36" transform="translate(1144.3 -1276.12)"/><path class="cls-186" d="M-365.86,2307.14a1.59,1.59,0,0,1,1.55-1.59,1.59,1.59,0,0,1,1.59,1.59,1.56,1.56,0,0,1-1.59,1.55,1.55,1.55,0,0,1-1.55-1.55m.4,3.7h2.34v15h-2.34Z" transform="translate(1144.3 -1276.12)"/><path class="cls-186" d="M-359.27,2329.73l1.19-1.75a5.71,5.71,0,0,0,4.88,2.06c2.49,0,4.82-1.22,4.82-4.51v-2.15a6.29,6.29,0,0,1-5,2.68c-3.92,0-6.69-2.93-6.69-7.78s2.74-7.81,6.69-7.81a6.22,6.22,0,0,1,5,2.64v-2.27H-346v14.59c0,5-3.49,6.54-7.16,6.54a7.7,7.7,0,0,1-6.07-2.24m10.89-8.19V2315a5.53,5.53,0,0,0-4.48-2.43c-3,0-4.82,2.4-4.82,5.73s1.8,5.72,4.82,5.72a5.55,5.55,0,0,0,4.48-2.46" transform="translate(1144.3 -1276.12)"/><path class="cls-186" d="M-332,2325.87V2316c0-2.65-1.34-3.49-3.36-3.49a5.78,5.78,0,0,0-4.45,2.34v11h-2.33v-15h2.33V2313a7.43,7.43,0,0,1,5.35-2.55c3.14,0,4.79,1.58,4.79,4.85v10.55Z" transform="translate(1144.3 -1276.12)"/><path class="cls-186" d="M-326.66,2318.34c0-4.36,3.11-7.87,7.41-7.87,4.54,0,7.21,3.55,7.21,8.06v.59H-324.2a5.29,5.29,0,0,0,5.41,5.19,6.57,6.57,0,0,0,4.64-1.9l1.12,1.53a8.2,8.2,0,0,1-6,2.3c-4.45,0-7.65-3.2-7.65-7.9m7.37-5.94a5,5,0,0,0-4.91,5h9.86a4.87,4.87,0,0,0-5-5" transform="translate(1144.3 -1276.12)"/><path class="cls-186" d="M-298.16,2325.87v-2.24a6.34,6.34,0,0,1-5.07,2.61c-3.92,0-6.69-3-6.69-7.87s2.74-7.9,6.69-7.9a6.27,6.27,0,0,1,5.07,2.64v-8h2.33v20.75Zm0-4.08V2315a5.63,5.63,0,0,0-4.51-2.43c-3,0-4.83,2.49-4.83,5.82s1.81,5.79,4.83,5.79a5.58,5.58,0,0,0,4.51-2.37" transform="translate(1144.3 -1276.12)"/><path class="cls-186" d="M-284.69,2325.87v-20.75h2.33v8a6.25,6.25,0,0,1,5.08-2.64c3.92,0,6.69,3.11,6.69,7.9s-2.77,7.87-6.69,7.87a6.35,6.35,0,0,1-5.08-2.61v2.24Zm6.81-1.71c3.05,0,4.86-2.46,4.86-5.79s-1.81-5.82-4.86-5.82a5.59,5.59,0,0,0-4.48,2.43v6.81a5.54,5.54,0,0,0,4.48,2.37" transform="translate(1144.3 -1276.12)"/><path class="cls-186" d="M-268,2329.63a3.46,3.46,0,0,0,1.27.25,2.16,2.16,0,0,0,2.24-1.58l1-2.28-6.29-15.18h2.52l5,12.32,5-12.32h2.55l-7.53,18.08a4.48,4.48,0,0,1-4.42,3,7.92,7.92,0,0,1-1.71-.22Z" transform="translate(1144.3 -1276.12)"/></g></g></g><rect class="cls-23" x="147.33" y="443.33" width="517.85" height="260.68"/></g></g></svg>